<svg xmlns="http://www.w3.org/2000/svg" xmlns:xlink="http://www.w3.org/1999/xlink" width="11.8in" height="4.3in" viewBox="0 0 850 313"><defs><radialGradient id="未命名的渐变_267" cx="228.49" cy="18.84" r="583.96" gradientTransform="translate(0 -8.5) scale(0.83 0.72)" gradientUnits="userSpaceOnUse"><stop offset="0" stop-color="#2f7fcc"/><stop offset="0.26" stop-color="#2761ac"/><stop offset="0.56" stop-color="#1e438c"/><stop offset="0.82" stop-color="#193178"/><stop offset="1" stop-color="#172a71"/></radialGradient><linearGradient id="未命名的渐变_4" x1="-0.39" y1="156.49" x2="850.42" y2="156.49" gradientUnits="userSpaceOnUse"><stop offset="0" stop-color="#fff"/><stop offset="1"/></linearGradient><pattern id="新建图案色板_1" data-name="新建图案色板 1" width="48.2" height="48.15" patternTransform="translate(227.2 6.4) rotate(-29) scale(0.7)" patternUnits="userSpaceOnUse" viewBox="0 0 48.2 48.2"><rect width="48.2" height="48.15" fill="none"/><rect width="48.2" height="48.15" fill="#1b569f"/></pattern><pattern id="新建图案色板_1-87" data-name="新建图案色板 1" width="48.2" height="48.15" patternTransform="matrix(-0.61, -0.34, -0.34, 0.61, 171.2, -8.72)" patternUnits="userSpaceOnUse" viewBox="0 0 48.2 48.2"><rect width="48.2" height="48.15" fill="none"/><rect width="48.2" height="48.15" fill="#1b569f"/></pattern><pattern id="新建图案色板_1-173" data-name="新建图案色板 1" width="48.2" height="48.15" patternTransform="translate(-29.3 -212.1) scale(1.63)" patternUnits="userSpaceOnUse" viewBox="0 0 48.2 48.2"><rect width="48.2" height="48.15" fill="none"/><rect width="48.2" height="48.15" fill="#1b569f"/></pattern><pattern id="新建图案色板_1-357" data-name="新建图案色板 1" width="48.2" height="48.15" patternTransform="matrix(2.57, -0.49, 0.49, 2.57, -184.4, -388.22)" patternUnits="userSpaceOnUse" viewBox="0 0 48.2 48.2"><rect width="48.2" height="48.15" fill="none"/><rect width="48.2" height="48.15" fill="#1b569f"/></pattern><pattern id="新建图案色板_1-361" data-name="新建图案色板 1" width="48.2" height="48.15" patternTransform="matrix(2.57, -0.49, 0.49, 2.57, -204.4, -398.23)" patternUnits="userSpaceOnUse" viewBox="0 0 48.2 48.2"><rect width="48.2" height="48.15" fill="none"/><rect width="48.2" height="48.15" fill="#1b569f"/></pattern><pattern id="新建图案色板_1-371" data-name="新建图案色板 1" width="48.2" height="48.15" patternTransform="translate(118.3 -59.9) scale(1.32)" patternUnits="userSpaceOnUse" viewBox="0 0 48.2 48.2"><rect width="48.2" height="48.15" fill="none"/><rect width="48.2" height="48.15" fill="#1b569f"/></pattern></defs><title>FACEBOOK</title><g id="Unity"><rect y="-30.5" width="850" height="374.02" stroke-miterlimit="10" stroke-width="0.77" fill="url(#未命名的渐变_267)" stroke="url(#未命名的渐变_4)"/><path d="M165.6,264.5,157,276.6,144.9,268l8.6-12.1Zm-9,9.3,6.2-8.8-8.8-6.2-6.3,8.8Z" fill="#005bb5"/><path d="M149,282.8l1.2,21.8-21.9,1.2L127.2,284Zm-2,18.9-.9-15.8-15.8.9.9,15.8Z" fill="#005bb5"/><path d="M50.3,309.5l.5,9.1-9.1.5-.5-9.1Zm-.8,7.9-.3-6.6-6.7.4.4,6.6Z" fill="#005bb5"/><path d="M23.3,277l-3.2,8.5-8.5-3.2,3.2-8.5Zm-3.9,6.9,2.3-6.2-6.2-2.3-2.3,6.2Z" fill="#005bb5"/><path d="M276.3,304.2l-5.5,8.7-8.7-5.4,5.4-8.8Zm-5.9,6.8,4-6.4-6.4-4-4,6.4Z" fill="#005bb5"/><path d="M416.9,312.3l-5.5,8.8-8.7-5.5,5.4-8.7Zm-5.9,6.9,3.9-6.4-6.3-4-4,6.4Z" fill="#005bb5"/><path d="M201.6,287.7l-5.5,8.8-8.8-5.5,5.5-8.8Zm-6,6.8,4-6.3-6.4-4-3.9,6.4Z" fill="#005bb5"/><polygon points="241.4 310.8 241.9 312.8 233 315.4 235.5 324.2 233.6 324.8 231.1 315.9 222.3 318.4 221.7 316.3 230.5 313.8 227.9 304.8 229.8 304.2 232.4 313.4 241.4 310.8" fill="#005bb5"/><polygon points="229.4 270.3 231.1 272.3 222.3 279.7 229.6 288.4 227.8 290 220.4 281.2 211.8 288.5 210.1 286.5 218.7 279.2 211.2 270.3 213 268.8 220.6 277.8 229.4 270.3" fill="#005bb5"/><polygon points="19.8 311.8 20.3 313.6 12.4 315.8 14.6 323.7 12.9 324.1 10.7 316.3 3 318.5 2.4 316.7 10.2 314.5 7.9 306.5 9.5 306 11.9 314.1 19.8 311.8" fill="#005bb5"/><path d="M43.5,274.6l9.7,13.8-17,1.3Zm6.1,12.3-5.7-8.5-4.6,9.3Z" fill="#005bb5"/><path d="M87.5,236.3l-17.7,8,2.1-19.5Zm-15.2,4.3,10.8-4.7-9.6-7.1Z" fill="#005bb5"/><path d="M126.9,258.1,109.7,249l16.8-10.2Zm-12.8-9.5,10.4,5.8-.2-11.9Z" fill="#005bb5"/><path d="M29.9,221.9l-17.7,8,2.1-19.5Zm-15.3,4.3,10.8-4.7-9.5-7.1Z" fill="#005bb5"/><path d="M89.2,293l1,16.8-15.1-7.7ZM88,306.7l-.5-10.3L78.8,302Z" fill="#005bb5"/><path d="M281.3,262.1l.5,9.2-9.1.5-.5-9.2Zm-.8,8-.3-6.6-6.7.3.4,6.6Z" fill="#005bb5"/><path d="M171.7,312.2l6.1,10.1H165.9Zm3.7,8.9-3.6-6.2-3.6,6.2Z" fill="#005bb5"/><path d="M218.8,235.3l16.8,15.9-22.4,6.5Zm11.6,14.9-10-9.8-3.6,13.8Z" fill="#005bb5"/><path d="M251,263.4l12.7,12-16.9,4.9Zm8.8,11.3-7.6-7.4-2.7,10.3Z" fill="#005bb5"/><path d="M35.7,228.5a11.8,11.8,0,1,1-12.4,11.1A11.8,11.8,0,0,1,35.7,228.5Zm8.1,12.3a8.8,8.8,0,1,0-9.3,8.2A8.7,8.7,0,0,0,43.8,240.8Z" fill="#005bb5"/><path d="M68.3,261a8.9,8.9,0,1,1-9.4,8.4A8.9,8.9,0,0,1,68.3,261Zm6.2,9.3a6.7,6.7,0,0,0-13.4-.8,6.7,6.7,0,1,0,13.4.8Z" fill="#005bb5"/><path d="M182.3,227.6a11.7,11.7,0,1,1-12.4,11A11.6,11.6,0,0,1,182.3,227.6Zm8.1,12.2a8.8,8.8,0,1,0-9.4,8.3A8.8,8.8,0,0,0,190.4,239.8Z" fill="#005bb5"/><path d="M524.3,296.2l-2.7,8.8-8.7-2.7,2.7-8.8Zm-3.5,7.2,1.9-6.3-6.3-2-2,6.3Z" fill="#005bb5"/><path d="M591,308.3l2.1,16.7-15.6-6.8Zm-.4,13.8-1.1-10.2-8.3,6Z" fill="#005bb5"/><path d="M560.5,301.1l-4.9,9.1-9.1-4.9,5-9.1Zm-5.5,7.2,3.6-6.6-6.6-3.6-3.6,6.6Z" fill="#005bb5"/><polygon points="394.5 306.3 386.2 314.2 394 322.5 392.3 324.1 384.4 315.8 376.2 323.6 374.4 321.7 382.6 313.9 374.6 305.5 376.3 303.8 384.4 312.3 392.8 304.4 394.5 306.3" fill="#005bb5"/><path d="M432.7,296l13.4,11.2-16.6,5.9Zm9.5,10.7-8.1-6.9-2,10.4Z" fill="#005bb5"/><polygon points="357.5 240.1 346.6 243.9 350.4 254.7 348.1 255.5 344.3 244.7 333.7 248.4 332.8 245.9 343.5 242.1 339.6 231.2 341.9 230.4 345.8 241.5 356.6 237.7 357.5 240.1" fill="#005bb5"/><path d="M354.9,311l-17.2,9,.9-19.5Zm-15,5.2,10.5-5.4-9.9-6.5Z" fill="#005bb5"/><path d="M311.8,274.6a11.8,11.8,0,1,1-11.7,11.7A11.8,11.8,0,0,1,311.8,274.6Zm8.9,11.7a8.9,8.9,0,1,0-8.9,8.9A8.9,8.9,0,0,0,320.7,286.3Z" fill="#005bb5"/><polygon points="317 239.4 311.9 249.7 322.1 254.8 321 257 310.8 251.9 305.8 261.9 303.4 260.7 308.4 250.6 298 245.5 299.1 243.3 309.6 248.6 314.7 238.2 317 239.4" fill="#005bb5"/><path d="M407.2,248.3l-3.9,21.4-21.5-3.9,3.9-21.4Zm-6.3,18,2.9-15.6-15.7-2.9-2.8,15.6Z" fill="#005bb5"/><polygon points="412.5 274.1 405.1 282.9 413.8 290.3 412.2 292.1 403.4 284.7 396.2 293.3 394.2 291.6 401.5 283 392.6 275.5 394.1 273.7 403.1 281.3 410.5 272.5 412.5 274.1" fill="#005bb5"/><path d="M457.2,274.6l-2.9,16.6-12.9-11Zm-4.3,13.1,1.9-10.1L445,281Z" fill="#005bb5"/><path d="M359.1,269.6,371.8,289l-23.3,1Zm7.9,17.2-7.5-11.9-6.7,12.5Z" fill="#005bb5"/><path d="M320,315.9l-4.9,9.1-9.1-4.9,4.9-9.1Zm-5.5,7.2,3.6-6.6-6.6-3.6-3.6,6.6Z" fill="#005bb5"/><path d="M496.6,319.9l-7.8,12.6-12.6-7.8,7.8-12.6Zm-8.5,9.8,5.7-9.1-9.2-5.7-5.6,9.2Z" fill="#005bb5"/><path d="M49.2,166.3,51.7,188,30,190.5l-2.5-21.7Zm-.8,19.1-1.8-15.8-15.8,1.8,1.8,15.8Z" fill="#005bb5"/><path d="M193.7,184.4l17.7,14.9-22,7.8Zm12.5,14.2-10.6-9.2-2.7,13.9Z" fill="#005bb5"/><path d="M134.8,198.9l-3.9,21.4-21.5-3.9,3.9-21.4Zm-6.3,18,2.8-15.6-15.6-2.9L112.9,214Z" fill="#005bb5"/><path d="M165.2,170.9A14.2,14.2,0,1,1,157,198a14.2,14.2,0,1,1,8.2-27.1Zm6.1,16.6a10.7,10.7,0,1,0-13.3,7.1A10.7,10.7,0,0,0,171.3,187.5Z" fill="#005bb5"/><path d="M135.4,233.2l15-7.9-.9,17Zm13-4.6-9.1,4.7,8.7,5.6Z" fill="#005bb5"/><path d="M279.8,233l-8.6,12.2-12.1-8.6,8.5-12.1Zm-9.1,9.3,6.2-8.8-8.8-6.2-6.2,8.8Z" fill="#005bb5"/><polygon points="400.1 217.2 401.8 219.2 393 226.6 400.3 235.3 398.4 236.9 391 228.1 382.5 235.4 380.8 233.4 389.4 226.1 381.9 217.2 383.7 215.7 391.3 224.6 400.1 217.2" fill="#005bb5"/><path d="M241.1,226.7l-17.2-9.2,16.7-10.1Zm-12.8-9.5,10.4,5.7-.2-11.9Z" fill="#005bb5"/><path d="M333,203.9l16.8,15.9-22.4,6.5Zm11.6,14.9L334.5,209,331,222.7Z" fill="#005bb5"/><path d="M296.5,196.2a11.7,11.7,0,1,1-12.5,11A11.7,11.7,0,0,1,296.5,196.2Zm8,12.2a8.8,8.8,0,0,0-8.2-9.3,8.7,8.7,0,0,0-9.3,8.3,8.8,8.8,0,0,0,8.2,9.3A8.7,8.7,0,0,0,304.5,208.4Z" fill="#005bb5"/><path d="M242.2,193.2l14.9-7.8-.8,16.9Zm13-4.5-9.2,4.6,8.7,5.7Z" fill="#005bb5"/><polygon points="93.1 173.1 99.4 182.8 108.9 176.6 110.2 178.6 100.6 184.9 106.8 194.3 104.5 195.7 98.4 186.3 88.7 192.6 87.3 190.6 97.2 184.2 90.9 174.5 93.1 173.1" fill="#005bb5"/><path d="M81.7,200.7l5.8,18.6-19.1-4.5Zm2.4,15.8-3.3-11.4-8.3,8.6Z" fill="#005bb5"/><polygon points="43.6 198.1 45 207.3 54.1 205.9 54.4 207.8 45.2 209.2 46.6 218.2 44.5 218.6 43.1 209.5 33.9 211 33.5 209.1 42.9 207.6 41.5 198.4 43.6 198.1" fill="#005bb5"/><path d="M755.7,220.4l1.3,14.7-14.7,1.4-1.4-14.8Zm-.9,12.9-.9-10.7-10.8.9,1,10.8Z" fill="#005bb5"/><path d="M688.2,266.5l-8.3,17.6-11-16.2Zm-8.8,13.2,5.1-10.6-11.8.8Z" fill="#005bb5"/><path d="M723.4,252.4l-19,4.1,6.1-18.6Zm-15.8,1,11.5-2.3-7.8-9Z" fill="#005bb5"/><path d="M624.3,278.9,616,296.5l-11-16.2Zm-8.8,13.2,5.2-10.6-11.9.8Z" fill="#005bb5"/><path d="M813.2,263.9l6.3,6.6-6.6,6.3-6.3-6.6Zm4.5,6.6-4.5-4.8-4.9,4.5,4.6,4.9Z" fill="#005bb5"/><path d="M801.5,161.5l23.1,1.2-12.9,19.4Zm18.5,3.8-14-1,6.2,12.8Z" fill="#005bb5"/><path d="M764.4,257l17.5,1-9.8,14.6Zm14,2.9-10.6-.7,4.7,9.6Z" fill="#005bb5"/><path d="M638.2,279.7a11.8,11.8,0,1,1-2.3,16.5A11.8,11.8,0,0,1,638.2,279.7Zm14.1,4.1a8.8,8.8,0,0,0-12.3-1.7,8.7,8.7,0,0,0-1.7,12.3,8.8,8.8,0,1,0,14-10.6Z" fill="#005bb5"/><path d="M700.8,300.4a8.8,8.8,0,0,1,12.4,1.7A8.9,8.9,0,1,1,699,312.8,8.8,8.8,0,0,1,700.8,300.4Zm10.7,3a6.7,6.7,0,1,0-1.3,9.4A6.8,6.8,0,0,0,711.5,303.4Z" fill="#005bb5"/><path d="M768.7,179.2a11.8,11.8,0,1,1-2.4,16.5A11.7,11.7,0,0,1,768.7,179.2Zm14.1,4.1a8.8,8.8,0,1,0-1.8,12.4A8.9,8.9,0,0,0,782.8,183.3Z" fill="#005bb5"/><polygon points="830.2 234.5 833 245.7 844 243 844.6 245.3 833.5 248.1 836.2 259 833.6 259.6 830.9 248.7 819.7 251.5 819 249.2 830.5 246.3 827.7 235.2 830.2 234.5" fill="#005bb5"/><path d="M631.7,213l15.9,14.9-14.9,15.9-16-14.9Zm11.7,15-11.6-10.8L621,228.8l11.5,10.8Z" fill="#005bb5"/><path d="M749.4,138.9h23.1L760.8,159Zm18.7,2.7H754l7,12.4Z" fill="#005bb5"/><path d="M713.9,188.1,724.8,207l-18.9,11L695,199.1Zm6.8,17.8-7.9-13.7-13.7,8,7.9,13.7Z" fill="#005bb5"/><path d="M718.9,147.1a14.2,14.2,0,1,1-7.3,18.7A14.1,14.1,0,0,1,718.9,147.1Zm15.4,8.7a10.6,10.6,0,1,0-5.5,14A10.6,10.6,0,0,0,734.3,155.8Z" fill="#005bb5"/><path d="M736.6,213.8l6.3-15.6,10.3,13.4Zm7-11.9-4,9.5,10.3-1.3Z" fill="#005bb5"/><path d="M846.4,120.2l1.4,14.8L833,136.3l-1.3-14.7Zm-.8,12.9-1-10.7-10.7,1,1,10.7Z" fill="#005bb5"/><path d="M812.9,140.5l-19,4.1L800,126Zm-15.9,1,11.6-2.4-7.9-8.9Z" fill="#005bb5"/><path d="M812,209a11.7,11.7,0,0,1,16.4,2.3A11.7,11.7,0,1,1,812,209Zm14.1,4.1A8.8,8.8,0,1,0,812,223.7a8.8,8.8,0,0,0,14.1-10.6Z" fill="#005bb5"/><path d="M792,114.3l6.3-15.7L808.6,112Zm7-11.9-4,9.4,10.3-1.3Z" fill="#005bb5"/><polygon points="665.4 195.6 676.5 198.9 679.7 187.9 682.1 188.6 678.8 199.6 689.6 202.8 688.8 205.4 678 202.1 674.7 213.2 672.4 212.6 675.7 201.3 664.7 198 665.4 195.6" fill="#005bb5"/><path d="M674.7,224l16.4,10.4-17.4,8.9Zm12,10.4-9.9-6.5-.7,11.9Z" fill="#005bb5"/><polygon points="599.8 245.4 606.9 251.5 612.9 244.5 614.4 245.8 608.4 252.8 615.2 258.8 613.9 260.4 606.9 254.4 600.8 261.6 599.3 260.3 605.5 253.1 598.5 247 599.8 245.4" fill="#005bb5"/><path d="M539.5,281.1l-17.7,8,2.1-19.4Zm-15.3,4.3,10.9-4.7-9.6-7.1Z" fill="#005bb5"/><path d="M564.1,291l-17.2-9.2,16.7-10.2Zm-12.8-9.5,10.4,5.7-.2-11.9Z" fill="#005bb5"/><path d="M451,266.5l-17.7,8.1,2.1-19.5Zm-15.3,4.4,10.9-4.8L437,259Z" fill="#005bb5"/><path d="M484.7,278.3a11.8,11.8,0,1,1-12.5,11A11.8,11.8,0,0,1,484.7,278.3Zm8.1,12.3a8.8,8.8,0,1,0-17.6-1.1,8.7,8.7,0,0,0,8.2,9.3A8.8,8.8,0,0,0,492.8,290.6Z" fill="#005bb5"/><path d="M778.5,217a11.7,11.7,0,1,1-12.4,11A11.7,11.7,0,0,1,778.5,217Zm8.1,12.2a8.8,8.8,0,1,0-9.3,8.3A8.8,8.8,0,0,0,786.6,229.2Z" fill="#005bb5"/><path d="M541.5,234.6l-1.9,21.8-21.8-2,1.9-21.7Zm-4.7,18.5,1.4-15.8-15.8-1.4L521,251.7Z" fill="#005bb5"/><polygon points="570.7 238.8 577 248.4 586.5 242.2 587.8 244.3 578.2 250.5 584.3 259.9 582.1 261.4 576 251.9 566.3 258.2 564.9 256.2 574.8 249.8 568.5 240.2 570.7 238.8" fill="#005bb5"/><path d="M447.3,226.4l5.8,18.6L434,240.5Zm2.4,15.7-3.4-11.3-8.2,8.6Z" fill="#005bb5"/><polygon points="756.7 317.1 745.8 321 749.6 331.7 747.3 332.5 743.5 321.7 732.9 325.5 732 323 742.7 319.2 738.8 308.3 741 307.5 745 318.6 755.8 314.7 756.7 317.1" fill="#005bb5"/><polygon points="680.6 309.3 675.5 319.6 685.7 324.7 684.6 326.9 674.4 321.8 669.4 331.8 667 330.7 672 320.6 661.6 315.4 662.7 313.2 673.2 318.5 678.3 308.2 680.6 309.3" fill="#005bb5"/><polygon points="790.3 292.2 792 294.1 783.2 301.6 790.5 310.3 788.7 311.8 781.3 303.1 772.7 310.3 771 308.3 779.6 301 772.1 292.2 773.9 290.6 781.5 299.6 790.3 292.2" fill="#005bb5"/><path d="M732.1,281,749,296.9l-22.5,6.4Zm11.7,14.9-10.1-9.8-3.5,13.7Z" fill="#005bb5"/><path d="M832.2,286.7l5.8,18.6-19-4.5Zm2.4,15.7-3.3-11.3-8.2,8.6Z" fill="#005bb5"/><path d="M847.3,87l-3.9,21.5L822,104.6l3.9-21.5ZM841,105l2.9-15.6-15.6-2.9-2.9,15.7Z" fill="#005bb5"/><polygon points="825.6 51.7 827.2 53.6 818.4 61.1 825.8 69.8 823.9 71.3 816.5 62.6 807.9 69.8 806.2 67.8 814.8 60.5 807.4 51.7 809.2 50.1 816.8 59.1 825.6 51.7" fill="#005bb5"/><path d="M843.5,11.5l5.8,18.6-19.1-4.5Zm2.4,15.7-3.4-11.3-8.2,8.6Z" fill="#005bb5"/><polygon points="485.1 243.5 486.5 252.7 495.6 251.2 495.9 253.2 486.8 254.6 488.2 263.6 486.1 263.9 484.6 254.9 475.4 256.4 475.1 254.5 484.5 253 483 243.8 485.1 243.5" fill="#005bb5"/><path d="M738.5,151.1h0a2.3,2.3,0,0,1,1.4,1.6,6.1,6.1,0,0,1-.6,4.7h-.1c-6.1,3.3-8.7,1.7-8.7,1.7-3.6-3.5.2-7.4.7-7.8C733.9,150.6,736.8,150.2,738.5,151.1Z" fill="#f8f8f8"/><path d="M739.9,152.7a2.3,2.3,0,0,0-1.4-1.6c.5,0,10.4-.2,3.1,9.8,0,0-7.4,5.5-13.9,11a4,4,0,0,1-3.3-2.7c7.6-4,12.9-8,14.9-11.8A6.1,6.1,0,0,0,739.9,152.7Z" fill="#e6e6e6"/><path d="M696.8,186h0Zm-36.6,56.1a101.6,101.6,0,0,1-14.8,4.7c-4.4-3-15.5,3.2-15.5,3.2-8-8.1-13.8-35.4-13.8-35.4l16.7-7.2A59.8,59.8,0,0,0,651.5,187s2.2-4.4,10-6.6a31,31,0,0,1,6.1-1,118.1,118.1,0,0,0,16.5-4.2c3-1,6-2.2,8.9-3.5l2.2-1.2,13.3-7.8,15.4-8.9a44.9,44.9,0,0,1,7.3-2.5c-.5.4-4.3,4.3-.7,7.8,0,0,2.6,1.6,8.7-1.7h.1c-2,3.8-7.3,7.8-14.9,11.8l-1.3.8s-20.5,13.4-26.2,15.9c2.9-1.2,18.5-7.7,23-7.6h.8c4.8.8,9.9,7.9,2.7,12.3l-.3.2c-8.3-2.5-16.9,2.9-16.9,2.9l-4.8,1.8c-3.9,1.1-12.1,4.3-12.1,4.3a24.3,24.3,0,0,0-3.2,2.4,37.8,37.8,0,0,0-4.3,4.5c.2,2.1,2.7,2.8,2.7,2.8l1.4.6a15.7,15.7,0,0,0,4.9.8l-.9.8c-7.4-.5-6.2,4.2-6.2,4.2l4.3,3.5,3.3,2.7,8.3,2.7,1.8,1,3,1.1c6.2,1.7,12.8.9,16.4.2,0,0-.7,6.1-6.4,8-3.4-4-10.4-3.1-10.6-3-9.5-8.7-15-5.3-15-5.3-3.1.2-3.6,1.7-3.5,2.9a3.4,3.4,0,0,0,.4,1.5,10.5,10.5,0,0,0,2.2,3.8c-2.5,1.1-4.9,2-7.2,2.8a83.2,83.2,0,0,1-9.9,2.7,4.5,4.5,0,0,0-1.7.4A67.1,67.1,0,0,1,660.2,242.1Z" fill="#fff"/><path d="M724.4,169.2a4,4,0,0,0,3.3,2.7,78.1,78.1,0,0,0-7,6.5h-.8c-4.5-.1-20.1,6.4-23,7.6,5.7-2.5,26.2-15.9,26.2-15.9Z" fill="#e6e6e6"/><path d="M707.9,208.9l-2.7.3h-.9a49.7,49.7,0,0,1-13.5,1.7,15.7,15.7,0,0,1-4.9-.8h0l9.5-1.9c4.7-4.9-1.5-7.6-1.5-7.6l-7.8,1.6h0a24.3,24.3,0,0,1,3.2-2.4s8.2-3.2,12.1-4.3l4.8-1.8s8.6-5.4,16.9-2.9a15.5,15.5,0,0,1,4.9,2.6s3.5,5-3.2,9.9a33.6,33.6,0,0,1-7.8,3.7S710.7,209.4,707.9,208.9Z" fill="#fff"/><path d="M724.8,203.4c.2.2,4.4,6.3-.6,10.7l-.6.5a22.1,22.1,0,0,0-4.5-1.2l-25.8-1.1-2.8-.4h-.6l.9-.8a49.7,49.7,0,0,0,13.5-1.7h.9l2.7-.3c2.8.5,9.1-1.8,9.1-1.8A33.6,33.6,0,0,0,724.8,203.4Z" fill="#e6e6e6"/><path d="M690.1,148.8s8.6,10.5,2.9,22.9h0c-2.9,1.3-5.9,2.5-8.9,3.5,5-9.7,1.6-18.4-.5-22.4h0a56.6,56.6,0,0,1,.8-6.8C685.5,145.1,687.3,145.3,690.1,148.8Z" fill="#e6e6e6"/><path d="M701.4,225.9l-1.8-1-8.3-2.7-3.3-2.7,7.4,1.2c5.5-.4,2-5.8,2-5.8a39.7,39.7,0,0,1-6.9-3l2.8.4,25.8,1.1a22.1,22.1,0,0,1,4.5,1.2c4.3,1.5,8.9,5-.1,11.9l-2.7.7c-3.6.7-10.2,1.5-16.4-.2Z" fill="#fff"/><path d="M684.4,146a56.6,56.6,0,0,0-.8,6.8,5.6,5.6,0,0,0-.9-1.4h0C682.7,151.1,682.9,147.3,684.4,146Z" fill="#f8f8f8"/><path d="M671.1,168.2a17.1,17.1,0,0,0,1.3-2.3,24.7,24.7,0,0,0,2.6-7.8h0c.1-.4,1.4-5.9,2.4-10.4,1.1-.6,2.6,0,4.7,2.7l.6,1h0a5.6,5.6,0,0,1,.9,1.4h0c2.1,4,5.5,12.7.5,22.4a118.1,118.1,0,0,1-16.5,4.2,31,31,0,0,0-6.1,1A69.4,69.4,0,0,0,671.1,168.2Z" fill="#fff"/><path d="M677.4,147.7c-1,4.5-2.3,10-2.4,10.4S674.9,149.2,677.4,147.7Z" fill="#fcc"/><path d="M714.4,235.2a6.9,6.9,0,0,1,1.4,2.7c2.1,7.1-13.4,6.1-13.4,6.1l-1.2-.5-3.2-1.4a38.3,38.3,0,0,1-7.3-4.4,23.3,23.3,0,0,1-2.8-2.6,10.5,10.5,0,0,1-2.2-3.8,3.4,3.4,0,0,1-.4-1.5h0c2.7,5.6,6.2,5,6.2,5,4.5.7,2.9-4.2,2.9-4.2l-5.6-3.7s5.5-3.4,15,5.3C704,232.1,711,231.2,714.4,235.2Z" fill="#fff"/><path d="M693.9,200.7s6.2,2.7,1.5,7.6l-9.5,1.9h0l-1.4-.6s-2.5-.7-2.7-2.8a37.8,37.8,0,0,1,4.3-4.5h0Z" fill="#f8f8f8"/><path d="M697.4,214.9s3.5,5.4-2,5.8l-7.4-1.2-4.3-3.5s-1.2-4.7,6.2-4.2h.6A39.7,39.7,0,0,0,697.4,214.9Z" fill="#f8f8f8"/><path d="M688.8,226.9l5.6,3.7s1.6,4.9-2.9,4.2c0,0-3.5.6-6.2-5h0C685.2,228.6,685.7,227.1,688.8,226.9Z" fill="#e6e6e6"/><path d="M687.9,235.1a23.3,23.3,0,0,0,2.8,2.6c-3.3.3-10,.2-10,.2h0C683,237.1,685.4,236.2,687.9,235.1Z" fill="#f8f8f8"/><path d="M669.1,241c-6.8,2.5-23.8,17.6-23.8,17.6a93.9,93.9,0,0,1-8.9,4.2L629.9,250s11.1-6.2,15.5-3.2a101.6,101.6,0,0,0,14.8-4.7A67.1,67.1,0,0,0,669.1,241Z" fill="#e6e6e6"/><path d="M738.5,151.1c-1.7-.9-4.6-.5-7.3.2a44.9,44.9,0,0,0-7.3,2.5l-15.4,8.9-13.3,7.8-2.2,1.2c-2.9,1.3-5.9,2.5-8.9,3.5a118.1,118.1,0,0,1-16.5,4.2,31,31,0,0,0-6.1,1c-7.8,2.2-10,6.6-10,6.6a59.8,59.8,0,0,1-18.7,20.4l-16.7,7.2s5.8,27.3,13.8,35.4" fill="none" stroke-linecap="round" stroke-linejoin="round" stroke-width="0.9" stroke="url(#新建图案色板_1)"/><path d="M696.9,185.9c5.7-2.5,26.2-15.9,26.2-15.9l1.3-.8c7.6-4,12.9-8,14.9-11.8a6.1,6.1,0,0,0,.6-4.7,2.3,2.3,0,0,0-1.4-1.6" fill="none" stroke-linecap="round" stroke-linejoin="round" stroke-width="0.9" stroke="url(#新建图案色板_1)"/><path d="M696.4,186.1h.4" fill="none" stroke-linecap="round" stroke-linejoin="round" stroke-width="0.9" stroke="url(#新建图案色板_1)"/><path d="M696.8,186h-.4" fill="none" stroke-linecap="round" stroke-linejoin="round" stroke-width="0.9" stroke="url(#新建图案色板_1)"/><path d="M696.8,186h.1" fill="none" stroke-linecap="round" stroke-linejoin="round" stroke-width="0.9" stroke="url(#新建图案色板_1)"/><path d="M723.4,190.7c7.2-4.4,2.1-11.5-2.7-12.3h-.8c-4.5-.1-20.1,6.4-23,7.6" fill="none" stroke-linecap="round" stroke-linejoin="round" stroke-width="0.9" stroke="url(#新建图案色板_1)"/><path d="M685.9,210.2l-1.4-.6s-2.5-.7-2.7-2.8a37.8,37.8,0,0,1,4.3-4.5,24.3,24.3,0,0,1,3.2-2.4s8.2-3.2,12.1-4.3l4.8-1.8s8.6-5.4,16.9-2.9a15.5,15.5,0,0,1,4.9,2.6s3.5,5-3.2,9.9a33.6,33.6,0,0,1-7.8,3.7s-6.3,2.3-9.1,1.8l-2.7.3h-.9a49.7,49.7,0,0,1-13.5,1.7A15.7,15.7,0,0,1,685.9,210.2Z" fill="none" stroke-linecap="round" stroke-linejoin="round" stroke-width="0.9" stroke="url(#新建图案色板_1)"/><path d="M724.8,203.3h0c.2.2,4.4,6.3-.6,10.7" fill="none" stroke-linecap="round" stroke-linejoin="round" stroke-width="0.9" stroke="url(#新建图案色板_1)"/><path d="M688,219.5l-4.3-3.5s-1.2-4.7,6.2-4.2h.6l2.8.4,25.8,1.1a22.1,22.1,0,0,1,4.5,1.2c4.3,1.5,8.9,5-.1,11.9l-2.7.7c-3.6.7-10.2,1.5-16.4-.2l-3-1.1-1.8-1-8.3-2.7Z" fill="none" stroke-linecap="round" stroke-linejoin="round" stroke-width="0.9" stroke="url(#新建图案色板_1)"/><path d="M714.3,235.2h.1c5.7-1.9,6.4-8,6.4-8" fill="none" stroke-linecap="round" stroke-linejoin="round" stroke-width="0.9" stroke="url(#新建图案色板_1)"/><path d="M649.3,241.5a39.3,39.3,0,0,0,10.9.6,67.1,67.1,0,0,0,8.9-1.1l1.7-.4a83.2,83.2,0,0,0,9.9-2.7c2.3-.8,4.7-1.7,7.2-2.8" fill="none" stroke-linecap="round" stroke-linejoin="round" stroke-width="0.9" stroke="url(#新建图案色板_1)"/><path d="M680.7,237.9s6.7.1,10-.2" fill="none" stroke-linecap="round" stroke-linejoin="round" stroke-width="0.9" stroke="url(#新建图案色板_1)"/><path d="M670.8,240.6h0a4.5,4.5,0,0,0-1.7.4c-6.8,2.5-23.8,17.6-23.8,17.6a93.9,93.9,0,0,1-8.9,4.2L629.9,250s11.1-6.2,15.5-3.2a101.6,101.6,0,0,0,14.8-4.7h.3" fill="none" stroke-linecap="round" stroke-linejoin="round" stroke-width="0.9" stroke="url(#新建图案色板_1)"/><path d="M683.6,152.8c2.1,4,5.5,12.7.5,22.4" fill="none" stroke-linecap="round" stroke-linejoin="round" stroke-width="0.9" stroke="url(#新建图案色板_1)"/><path d="M682.7,151.4a5.6,5.6,0,0,1,.9,1.4" fill="none" stroke-linecap="round" stroke-linejoin="round" stroke-width="0.9" stroke="url(#新建图案色板_1)"/><path d="M675,158.1c0-.4-.1-8.9,2.4-10.4s2.6,0,4.7,2.7l.6,1" fill="none" stroke-linecap="round" stroke-linejoin="round" stroke-width="0.9" stroke="url(#新建图案色板_1)"/><path d="M661.5,180.4a69.4,69.4,0,0,0,9.6-12.2,17.1,17.1,0,0,0,1.3-2.3,24.7,24.7,0,0,0,2.6-7.8" fill="none" stroke-linecap="round" stroke-linejoin="round" stroke-width="0.9" stroke="url(#新建图案色板_1)"/><path d="M682.7,151.4h0c0-.3.2-4.1,1.7-5.4s2.9-.7,5.7,2.8c0,0,8.6,10.5,2.9,22.9" fill="none" stroke-linecap="round" stroke-linejoin="round" stroke-width="0.9" stroke="url(#新建图案色板_1)"/><path d="M703.8,232.2h0c.2-.1,7.2-1,10.6,3a6.9,6.9,0,0,1,1.4,2.7c2.1,7.1-13.4,6.1-13.4,6.1l-1.2-.5-3.2-1.4a38.3,38.3,0,0,1-7.3-4.4,23.3,23.3,0,0,1-2.8-2.6,10.5,10.5,0,0,1-2.2-3.8,3.4,3.4,0,0,1-.4-1.5c-.1-1.2.4-2.7,3.5-2.9,0,0,5.5-3.4,15,5.3l.9.8" fill="none" stroke-linecap="round" stroke-linejoin="round" stroke-width="0.9" stroke="url(#新建图案色板_1)"/><path d="M690.5,211.9a39.7,39.7,0,0,0,6.9,3s3.5,5.4-2,5.8l-7.4-1.2" fill="none" stroke-linecap="round" stroke-linejoin="round" stroke-width="0.9" stroke="url(#新建图案色板_1)"/><path d="M686.1,202.3l7.8-1.6s6.2,2.7,1.5,7.6l-9.5,1.9" fill="none" stroke-linecap="round" stroke-linejoin="round" stroke-width="0.79" stroke="url(#新建图案色板_1)"/><path d="M688.8,226.9l5.6,3.7s1.6,4.9-2.9,4.2c0,0-3.5.6-6.2-5" fill="none" stroke-linecap="round" stroke-linejoin="round" stroke-width="0.79" stroke="url(#新建图案色板_1)"/><path d="M731.2,151.2h0c-.5.4-4.3,4.3-.7,7.8,0,0,2.6,1.6,8.7-1.7" fill="none" stroke-linecap="round" stroke-linejoin="round" stroke-width="0.79" stroke="url(#新建图案色板_1)"/><path d="M738.5,151.1h0c.5,0,10.4-.2,3.1,9.8,0,0-7.4,5.5-13.9,11a78.1,78.1,0,0,0-7,6.5h0" fill="none" stroke-linecap="round" stroke-linejoin="round" stroke-width="0.9" stroke="url(#新建图案色板_1)"/><path d="M705.9,201.1s2.7,5.8,2,7.8" fill="none" stroke-linecap="round" stroke-linejoin="round" stroke-width="0.51" stroke="url(#新建图案色板_1)"/><path d="M704.5,205.5s1.1,2.6.7,3.7" fill="none" stroke-linecap="round" stroke-linejoin="round" stroke-width="0.51" stroke="url(#新建图案色板_1)"/><path d="M722.2,207.4s-1.6,2.4-.5,4.1" fill="none" stroke-linecap="round" stroke-linejoin="round" stroke-width="0.51" stroke="url(#新建图案色板_1)"/><path d="M703.4,222.2a3.2,3.2,0,0,1-2,3.7" fill="none" stroke-linecap="round" stroke-linejoin="round" stroke-width="0.51" stroke="url(#新建图案色板_1)"/><path d="M707.1,221.4s-1,4.5-2.7,5.6" fill="none" stroke-linecap="round" stroke-linejoin="round" stroke-width="0.51" stroke="url(#新建图案色板_1)"/><path d="M717.7,229s-2.6-.1-1.3,2.7" fill="none" stroke-linecap="round" stroke-linejoin="round" stroke-width="0.51" stroke="url(#新建图案色板_1)"/><path d="M698,242.1s2.5-2.1,2.8-4.2" fill="none" stroke-linecap="round" stroke-linejoin="round" stroke-width="0.51" stroke="url(#新建图案色板_1)"/><path d="M701.2,243.5a10,10,0,0,0,1.2-2.8" fill="none" stroke-linecap="round" stroke-linejoin="round" stroke-width="0.51" stroke="url(#新建图案色板_1)"/><path d="M719.9,178.3s1.4,5.3,3.3,5.8" fill="none" stroke-linecap="round" stroke-linejoin="round" stroke-width="0.51" stroke="url(#新建图案色板_1)"/><path d="M724.4,169.2h0a4,4,0,0,0,3.3,2.7" fill="none" stroke-linecap="round" stroke-linejoin="round" stroke-width="0.51" stroke="url(#新建图案色板_1)"/><path d="M708.5,162.7s.3,5.1,3.8,7.5" fill="none" stroke-linecap="round" stroke-linejoin="round" stroke-width="0.51" stroke="url(#新建图案色板_1)"/><path d="M705.9,165a20.3,20.3,0,0,1,1.8,5.2" fill="none" stroke-linecap="round" stroke-linejoin="round" stroke-width="0.51" stroke="url(#新建图案色板_1)"/><path d="M721.7,160.1s.6,3,2.2,3.7" fill="none" stroke-linecap="round" stroke-linejoin="round" stroke-width="0.51" stroke="url(#新建图案色板_1)"/><path d="M672.4,165.9a4,4,0,0,0,3.6.7" fill="none" stroke-linecap="round" stroke-linejoin="round" stroke-width="0.51" stroke="url(#新建图案色板_1)"/><path d="M671.1,168.2h0a16.6,16.6,0,0,0,6.5.8" fill="none" stroke-linecap="round" stroke-linejoin="round" stroke-width="0.51" stroke="url(#新建图案色板_1)"/><path d="M675,158.1c.1-.4,1.4-5.9,2.4-10.4" fill="none" stroke-linecap="round" stroke-linejoin="round" stroke-width="0.34" stroke="url(#新建图案色板_1)"/><path d="M675,158.1h0" fill="none" stroke-linecap="round" stroke-linejoin="round" stroke-width="0.9" stroke="url(#新建图案色板_1)"/><path d="M683.6,152.8a56.6,56.6,0,0,1,.8-6.8" fill="none" stroke-linecap="round" stroke-linejoin="round" stroke-width="0.34" stroke="url(#新建图案色板_1)"/><path d="M683.6,152.8h0" fill="none" stroke-linecap="round" stroke-linejoin="round" stroke-width="0.9" stroke="url(#新建图案色板_1)"/><path d="M469.5,151.3h0a2.3,2.3,0,0,0-1.4,1.6,6.1,6.1,0,0,0,.6,4.7h.1c6.1,3.3,8.7,1.7,8.7,1.7,3.6-3.5-.2-7.4-.7-7.8C474.1,150.8,471.2,150.4,469.5,151.3Z" fill="#f8f8f8"/><path d="M468.1,152.9a2.3,2.3,0,0,1,1.4-1.6c-.5,0-10.4-.2-3.1,9.8,0,0,7.4,5.5,13.9,11a3.9,3.9,0,0,0,3.3-2.6c-7.6-4.1-12.9-8.1-14.9-11.9A6.1,6.1,0,0,1,468.1,152.9Z" fill="#e6e6e6"/><path d="M511.2,186.2h0Zm0-.1c-3-1.2-18.5-7.7-23.1-7.6h-.8c-4.8.8-9.9,8-2.7,12.3l.3.2c8.3-2.5,16.9,2.9,16.9,2.9l4.8,1.8c3.9,1.1,12.1,4.3,12.1,4.3a24.3,24.3,0,0,1,3.2,2.4,34.5,34.5,0,0,1,4.3,4.6c-.2,2-2.7,2.7-2.7,2.7l-1.4.6a15.7,15.7,0,0,1-4.9.8l.9.8c7.4-.4,6.2,4.2,6.2,4.2l-4.3,3.5-3.3,2.7-8.3,2.8-1.8.9a18.2,18.2,0,0,1-3,1.1c-6.2,1.7-12.8.9-16.4.2h0s.7,6.1,6.4,8c3.5-4,10.6-3,10.6-3,9.5-8.7,15-5.3,15-5.3,3.1.2,3.6,1.7,3.5,2.9a3.4,3.4,0,0,1-.4,1.5,9.2,9.2,0,0,1-2.2,3.8c2.5,1.1,4.9,2,7.2,2.8a83.2,83.2,0,0,0,9.9,2.7,4.1,4.1,0,0,1,1.7.4,67.1,67.1,0,0,0,8.9,1.1,101.6,101.6,0,0,0,14.8,4.7c4.4-3,15.6,3.2,15.6,3.2,7.9-8.1,13.7-35.4,13.7-35.4l-16.7-7.2a59.8,59.8,0,0,1-18.7-20.4s-2.2-4.4-10-6.6a31,31,0,0,0-6.1-1,118.1,118.1,0,0,1-16.5-4.2,74.6,74.6,0,0,1-8.9-3.5l-2.2-1.2-13.3-7.8L484.1,154a44.9,44.9,0,0,0-7.3-2.5c.5.4,4.3,4.3.7,7.8,0,0-2.6,1.6-8.7-1.7h-.1c2,3.8,7.3,7.8,14.9,11.9l1.3.7S505.4,183.6,511.2,186.1Z" fill="#fff"/><path d="M483.6,169.5a3.9,3.9,0,0,1-3.3,2.6,78.1,78.1,0,0,1,7,6.5h.8c4.6-.1,20.1,6.4,23.1,7.6-5.8-2.5-26.3-15.9-26.3-15.9Z" fill="#e6e6e6"/><path d="M500.1,209.2l2.7.2h.9a49.7,49.7,0,0,0,13.5,1.7,15.7,15.7,0,0,0,4.9-.8l-9.5-1.9c-4.7-4.9,1.5-7.6,1.5-7.6l7.8,1.6h0a24.3,24.3,0,0,0-3.2-2.4s-8.2-3.2-12.1-4.3l-4.8-1.8s-8.6-5.4-16.9-2.9a15.5,15.5,0,0,0-4.9,2.6s-3.5,5,3.2,9.9a33.6,33.6,0,0,0,7.8,3.7S497.3,209.6,500.1,209.2Z" fill="#fff"/><path d="M483.2,203.6c-.1.1-4.5,6.2.6,10.7l.4.5a23.9,23.9,0,0,1,4.7-1.2l25.8-1.1,2.8-.4h.6l-.9-.8a49.7,49.7,0,0,1-13.5-1.7h-.9l-2.7-.2c-2.8.4-9.1-1.9-9.1-1.9A33.6,33.6,0,0,1,483.2,203.6Z" fill="#e6e6e6"/><path d="M506.6,226.1l1.8-.9,8.3-2.8,3.3-2.7-7.4,1.2c-5.5-.4-2-5.8-2-5.8a39.1,39.1,0,0,0,6.9-3l-2.8.4-25.8,1.1a23.9,23.9,0,0,0-4.7,1.2c-4.3,1.7-8.6,5.1.3,11.9l2.7.7c3.6.7,10.2,1.5,16.4-.2A18.2,18.2,0,0,0,506.6,226.1Z" fill="#fff"/><path d="M517.9,149s-8.6,10.5-2.9,22.9h0a74.6,74.6,0,0,0,8.9,3.5h0c-5-9.7-1.6-18.4.5-22.4h0a56.6,56.6,0,0,0-.8-6.8C522.5,145.3,520.7,145.5,517.9,149Z" fill="#e6e6e6"/><path d="M523.6,146.2a56.6,56.6,0,0,1,.8,6.8,5.6,5.6,0,0,1,.9-1.4h0C525.3,151.3,525.1,147.5,523.6,146.2Z" fill="#f8f8f8"/><path d="M536.9,168.4a17.1,17.1,0,0,1-1.3-2.3,24.7,24.7,0,0,1-2.6-7.8h0c0-.4-1.4-5.9-2.4-10.4-1.1-.6-2.6,0-4.7,2.8l-.6.9h0a5.6,5.6,0,0,0-.9,1.4h0c-2.1,4-5.5,12.7-.5,22.4h0a118.1,118.1,0,0,0,16.5,4.2,31,31,0,0,1,6.1,1A69.4,69.4,0,0,1,536.9,168.4Z" fill="#fff"/><path d="M530.6,147.9c1,4.5,2.4,10,2.4,10.4S533.1,149.4,530.6,147.9Z" fill="#fcc"/><path d="M520.1,235.3a9.2,9.2,0,0,0,2.2-3.8,3.4,3.4,0,0,0,.4-1.5c-2.7,5.6-6.2,5-6.2,5-4.5.7-2.9-4.2-2.9-4.2l5.6-3.7s-5.5-3.4-15,5.3c0,0-7.1-1-10.6,3a6.9,6.9,0,0,0-1.4,2.7c-2.1,7.1,13.4,6.1,13.4,6.1l1.2-.5,3.2-1.4a38.3,38.3,0,0,0,7.3-4.4A17.6,17.6,0,0,0,520.1,235.3Z" fill="#fff"/><path d="M514.1,200.9s-6.2,2.7-1.5,7.6l9.5,1.9,1.4-.6s2.5-.7,2.7-2.7a34.5,34.5,0,0,0-4.3-4.6h0Z" fill="#f8f8f8"/><path d="M510.6,215.1s-3.5,5.4,2,5.8l7.4-1.2,4.3-3.5s1.2-4.6-6.2-4.2h-.6A39.1,39.1,0,0,1,510.6,215.1Z" fill="#f8f8f8"/><path d="M519.2,227.1l-5.6,3.7s-1.6,4.9,2.9,4.2c0,0,3.5.6,6.2-5C522.8,228.8,522.3,227.3,519.2,227.1Z" fill="#e6e6e6"/><path d="M520.1,235.3a17.6,17.6,0,0,1-2.8,2.6,93.8,93.8,0,0,0,10,.2C525,237.3,522.6,236.4,520.1,235.3Z" fill="#f8f8f8"/><path d="M538.9,241.2c6.8,2.5,23.9,17.6,23.9,17.6s5.2,2.8,8.8,4.2l6.6-12.8S567,244,562.6,247a101.6,101.6,0,0,1-14.8-4.7A67.1,67.1,0,0,1,538.9,241.2Z" fill="#e6e6e6"/><path d="M469.5,151.3c1.7-.9,4.6-.5,7.3.2a44.9,44.9,0,0,1,7.3,2.5l15.4,8.9,13.3,7.8,2.2,1.2a74.6,74.6,0,0,0,8.9,3.5,118.1,118.1,0,0,0,16.5,4.2,31,31,0,0,1,6.1,1c7.8,2.2,10,6.6,10,6.6a59.8,59.8,0,0,0,18.7,20.4l16.7,7.2s-5.8,27.3-13.7,35.4" fill="none" stroke-linecap="round" stroke-linejoin="round" stroke-width="0.9" stroke="url(#新建图案色板_1-87)"/><path d="M511.2,186.1c-5.8-2.5-26.3-15.9-26.3-15.9l-1.3-.7c-7.6-4.1-12.9-8.1-14.9-11.9a6.1,6.1,0,0,1-.6-4.7,2.3,2.3,0,0,1,1.4-1.6" fill="none" stroke-linecap="round" stroke-linejoin="round" stroke-width="0.9" stroke="url(#新建图案色板_1-87)"/><path d="M511.6,186.3h-.4" fill="none" stroke-linecap="round" stroke-linejoin="round" stroke-width="0.9" stroke="url(#新建图案色板_1-87)"/><path d="M511.2,186.2h.4" fill="none" stroke-linecap="round" stroke-linejoin="round" stroke-width="0.9" stroke="url(#新建图案色板_1-87)"/><path d="M511.2,186.2h0" fill="none" stroke-linecap="round" stroke-linejoin="round" stroke-width="0.9" stroke="url(#新建图案色板_1-87)"/><path d="M484.6,190.9c-7.2-4.3-2.1-11.5,2.7-12.3h.8c4.6-.1,20.1,6.4,23.1,7.6" fill="none" stroke-linecap="round" stroke-linejoin="round" stroke-width="0.9" stroke="url(#新建图案色板_1-87)"/><path d="M522.1,210.4l1.4-.6s2.5-.7,2.7-2.7a34.5,34.5,0,0,0-4.3-4.6,24.3,24.3,0,0,0-3.2-2.4s-8.2-3.2-12.1-4.3l-4.8-1.8s-8.6-5.4-16.9-2.9a15.5,15.5,0,0,0-4.9,2.6s-3.5,5,3.2,9.9a33.6,33.6,0,0,0,7.8,3.7s6.3,2.3,9.1,1.9l2.7.2h.9a49.7,49.7,0,0,0,13.5,1.7A15.7,15.7,0,0,0,522.1,210.4Z" fill="none" stroke-linecap="round" stroke-linejoin="round" stroke-width="0.9" stroke="url(#新建图案色板_1-87)"/><path d="M483.2,203.5h0c-.1.1-4.5,6.2.6,10.7" fill="none" stroke-linecap="round" stroke-linejoin="round" stroke-width="0.9" stroke="url(#新建图案色板_1-87)"/><path d="M517.5,212.1l-2.8.4-25.8,1.1a23.9,23.9,0,0,0-4.7,1.2c-4.3,1.7-8.6,5.1.3,11.9l2.7.7c3.6.7,10.2,1.5,16.4-.2a18.2,18.2,0,0,0,3-1.1l1.8-.9,8.3-2.8,3.3-2.7,4.3-3.5s1.2-4.6-6.2-4.2h-.6" fill="none" stroke-linecap="round" stroke-linejoin="round" stroke-width="0.9" stroke="url(#新建图案色板_1-87)"/><path d="M493.7,235.4h-.1c-5.7-1.9-6.4-8-6.4-8" fill="none" stroke-linecap="round" stroke-linejoin="round" stroke-width="0.9" stroke="url(#新建图案色板_1-87)"/><path d="M558.7,241.7a39.3,39.3,0,0,1-10.9.6,67.1,67.1,0,0,1-8.9-1.1l-1.7-.4a83.2,83.2,0,0,1-9.9-2.7c-2.3-.8-4.7-1.7-7.2-2.8h0" fill="none" stroke-linecap="round" stroke-linejoin="round" stroke-width="0.9" stroke="url(#新建图案色板_1-87)"/><path d="M527.3,238.1a93.8,93.8,0,0,1-10-.2" fill="none" stroke-linecap="round" stroke-linejoin="round" stroke-width="0.9" stroke="url(#新建图案色板_1-87)"/><path d="M537.2,240.8h0a4.1,4.1,0,0,1,1.7.4c6.8,2.5,23.9,17.6,23.9,17.6s5.2,2.8,8.8,4.2l6.6-12.8S567,244,562.6,247a101.6,101.6,0,0,1-14.8-4.7h-.3" fill="none" stroke-linecap="round" stroke-linejoin="round" stroke-width="0.9" stroke="url(#新建图案色板_1-87)"/><path d="M524.4,153c-2.1,4-5.5,12.7-.5,22.4" fill="none" stroke-linecap="round" stroke-linejoin="round" stroke-width="0.9" stroke="url(#新建图案色板_1-87)"/><path d="M525.3,151.6a5.6,5.6,0,0,0-.9,1.4" fill="none" stroke-linecap="round" stroke-linejoin="round" stroke-width="0.9" stroke="url(#新建图案色板_1-87)"/><path d="M533,158.3c.1-.4.1-8.9-2.4-10.4s-2.6,0-4.7,2.8l-.6.9" fill="none" stroke-linecap="round" stroke-linejoin="round" stroke-width="0.9" stroke="url(#新建图案色板_1-87)"/><path d="M546.5,180.6a69.4,69.4,0,0,1-9.6-12.2,17.1,17.1,0,0,1-1.3-2.3,24.7,24.7,0,0,1-2.6-7.8" fill="none" stroke-linecap="round" stroke-linejoin="round" stroke-width="0.9" stroke="url(#新建图案色板_1-87)"/><path d="M525.3,151.6h0c0-.3-.2-4.1-1.7-5.4s-2.9-.7-5.7,2.8c0,0-8.6,10.5-2.9,22.9" fill="none" stroke-linecap="round" stroke-linejoin="round" stroke-width="0.9" stroke="url(#新建图案色板_1-87)"/><path d="M504.2,232.4s-7.1-1-10.6,3a6.9,6.9,0,0,0-1.4,2.7c-2.1,7.1,13.4,6.1,13.4,6.1l1.2-.5,3.2-1.4a38.3,38.3,0,0,0,7.3-4.4,17.6,17.6,0,0,0,2.8-2.6,9.2,9.2,0,0,0,2.2-3.8,3.4,3.4,0,0,0,.4-1.5c.1-1.2-.4-2.7-3.5-2.9,0,0-5.5-3.4-15,5.3l-.9.8" fill="none" stroke-linecap="round" stroke-linejoin="round" stroke-width="0.9" stroke="url(#新建图案色板_1-87)"/><path d="M517.5,212.1h0a39.1,39.1,0,0,1-6.9,3s-3.5,5.4,2,5.8l7.4-1.2" fill="none" stroke-linecap="round" stroke-linejoin="round" stroke-width="0.9" stroke="url(#新建图案色板_1-87)"/><path d="M521.9,202.5l-7.8-1.6s-6.2,2.7-1.5,7.6l9.5,1.9" fill="none" stroke-linecap="round" stroke-linejoin="round" stroke-width="0.79" stroke="url(#新建图案色板_1-87)"/><path d="M519.2,227.1l-5.6,3.7s-1.6,4.9,2.9,4.2c0,0,3.5.6,6.2-5" fill="none" stroke-linecap="round" stroke-linejoin="round" stroke-width="0.79" stroke="url(#新建图案色板_1-87)"/><path d="M476.8,151.4h0c.5.4,4.3,4.3.7,7.8,0,0-2.6,1.6-8.7-1.7" fill="none" stroke-linecap="round" stroke-linejoin="round" stroke-width="0.79" stroke="url(#新建图案色板_1-87)"/><path d="M469.5,151.3h0c-.5,0-10.4-.2-3.1,9.8,0,0,7.4,5.5,13.9,11a78.1,78.1,0,0,1,7,6.5h0" fill="none" stroke-linecap="round" stroke-linejoin="round" stroke-width="0.9" stroke="url(#新建图案色板_1-87)"/><path d="M502.1,201.3s-2.7,5.8-2,7.9" fill="none" stroke-linecap="round" stroke-linejoin="round" stroke-width="0.51" stroke="url(#新建图案色板_1-87)"/><path d="M503.5,205.7s-1.1,2.6-.7,3.7" fill="none" stroke-linecap="round" stroke-linejoin="round" stroke-width="0.51" stroke="url(#新建图案色板_1-87)"/><path d="M485.8,207.6s1.6,2.4.5,4.1" fill="none" stroke-linecap="round" stroke-linejoin="round" stroke-width="0.51" stroke="url(#新建图案色板_1-87)"/><path d="M504.6,222.4a3.2,3.2,0,0,0,2,3.7" fill="none" stroke-linecap="round" stroke-linejoin="round" stroke-width="0.51" stroke="url(#新建图案色板_1-87)"/><path d="M500.9,221.7s1,4.4,2.7,5.5" fill="none" stroke-linecap="round" stroke-linejoin="round" stroke-width="0.51" stroke="url(#新建图案色板_1-87)"/><path d="M490.3,229.2s2.6-.1,1.3,2.7" fill="none" stroke-linecap="round" stroke-linejoin="round" stroke-width="0.51" stroke="url(#新建图案色板_1-87)"/><path d="M510,242.3s-2.5-2.1-2.8-4.2" fill="none" stroke-linecap="round" stroke-linejoin="round" stroke-width="0.51" stroke="url(#新建图案色板_1-87)"/><path d="M506.8,243.7a10,10,0,0,1-1.2-2.8" fill="none" stroke-linecap="round" stroke-linejoin="round" stroke-width="0.51" stroke="url(#新建图案色板_1-87)"/><path d="M488.1,178.5s-1.4,5.3-3.3,5.8" fill="none" stroke-linecap="round" stroke-linejoin="round" stroke-width="0.51" stroke="url(#新建图案色板_1-87)"/><path d="M483.6,169.5a3.9,3.9,0,0,1-3.3,2.6" fill="none" stroke-linecap="round" stroke-linejoin="round" stroke-width="0.51" stroke="url(#新建图案色板_1-87)"/><path d="M499.5,162.9s-.3,5.1-3.8,7.5" fill="none" stroke-linecap="round" stroke-linejoin="round" stroke-width="0.51" stroke="url(#新建图案色板_1-87)"/><path d="M502.1,165.2a20.3,20.3,0,0,0-1.8,5.2" fill="none" stroke-linecap="round" stroke-linejoin="round" stroke-width="0.51" stroke="url(#新建图案色板_1-87)"/><path d="M486.3,160.3s-.6,3-2.2,3.7" fill="none" stroke-linecap="round" stroke-linejoin="round" stroke-width="0.51" stroke="url(#新建图案色板_1-87)"/><path d="M535.6,166.1a4.2,4.2,0,0,1-3.6.8" fill="none" stroke-linecap="round" stroke-linejoin="round" stroke-width="0.51" stroke="url(#新建图案色板_1-87)"/><path d="M536.9,168.4h0a16.6,16.6,0,0,1-6.5.8" fill="none" stroke-linecap="round" stroke-linejoin="round" stroke-width="0.51" stroke="url(#新建图案色板_1-87)"/><path d="M533,158.3c0-.4-1.4-5.9-2.4-10.4" fill="none" stroke-linecap="round" stroke-linejoin="round" stroke-width="0.34" stroke="url(#新建图案色板_1-87)"/><path d="M533,158.3h0" fill="none" stroke-linecap="round" stroke-linejoin="round" stroke-width="0.9" stroke="url(#新建图案色板_1-87)"/><path d="M524.4,153a56.6,56.6,0,0,0-.8-6.8" fill="none" stroke-linecap="round" stroke-linejoin="round" stroke-width="0.34" stroke="url(#新建图案色板_1-87)"/><path d="M524.4,153h0" fill="none" stroke-linecap="round" stroke-linejoin="round" stroke-width="0.9" stroke="url(#新建图案色板_1-87)"/><g id="Rock2"><path d="M641.4,132.7h0s9.2-19,9.6-21.5c0,0,2.5-7,2.6-9.3,0,0,6.3-16.1,14.4-6.2,0,0,4.2,7.6-1.3,21.2,0,0-2.1,8-3.2,11.5a12,12,0,0,1-2.8,6.1s-9.3,16.8-11.5,22.4h-.4a17,17,0,0,1,.7,5.9,29.4,29.4,0,0,1-1.9,10.6h-.2a17.2,17.2,0,0,1,.2,6.7s-1.2,16.4-.5,21.1a195,195,0,0,1-5.3,21.5,28.6,28.6,0,0,1-1.8,14.2s-.6.9-.5,3.5a31.3,31.3,0,0,0,1.1,6.7s-5.3,11.6-3.4,21.4H575s-.6-4.1,0-6.4,0-7.7,0-7.7h0l-.8-14.8s-2.5-11.6-7-20.3a46.2,46.2,0,0,1-3.9-13.4,12.6,12.6,0,0,0-.3-2.1h0a19.6,19.6,0,0,0-3.9-8.8c-3.9-4.6-2.9-8.7-2.9-8.7,1.5-5.9.1-15.1-.4-17.6a25.1,25.1,0,0,1-2.8-15.2l-.3-.9c-.7-5-.9-15.7-.9-15.7-2.8-5.2-4.4-16.7-4.4-16.7l-.7-11.4a5.2,5.2,0,0,1-.4-3.5l-.2-11.9s-2.6-12-.4-17.4c0,0-.6-1.4-.2-1.9s1.1-5.7,4.5-5.5h.1l1.2-.7a11.3,11.3,0,0,1,3.1-1,2.1,2.1,0,0,1,1.7.2c1.5.6,3.7,2.5,6,8.3l2.8,8.7a46.7,46.7,0,0,1,.8,5.4,3.8,3.8,0,0,1-.6,2.6,37.4,37.4,0,0,1,1.7,12.2,22.5,22.5,0,0,0,2.4,8.6c2.1,3.7,4.4,16.6,4.4,16.6l1.3,7a2.3,2.3,0,0,1,.1,1.1h0a47.8,47.8,0,0,0,4.9,3.8l.4-6.1s0-4.9,5.9-11.6c0,0,1.5-2,3.2-3.8a11.8,11.8,0,0,1,3.2-2.6s6.2,0,9-.7a5.9,5.9,0,0,1,4.5,3.9s5.3,4.5,6,7.2h0a48.1,48.1,0,0,0-1,10.4l2.1-.5c8.3-5.6,10.4-2.6,10.4-2.6a44.6,44.6,0,0,0-8.8,3.6c-.6.6-.4,1.5-.1,2.4l-1.5.3c.9,2.1,2.9,6,5.8,6.7,0,0,2,1.8,8-.5h0c4.5-1.3,4.7-4,4.7-4h.7c0,.2.1.4.1.7h.6a3.1,3.1,0,0,1,1.1,0h0s5.8-9.3,6.7-10.9Zm-31.6,30.1v.2c-.9,9.6.7,15.7.7,15.7,3.7,8.2,14.1,2.5,14.1,2.5,4.3-2.1,5-10.5,5.1-14.9v-2.7c.6-4.7,1.5-13,1.5-13h-.1a14.9,14.9,0,0,1-4.6,4.9s-3.8,4.5-12.5,7.2A25.4,25.4,0,0,1,609.8,162.8Z" fill="#fff"/><path d="M624.5,123.6s11.1,6.3,8.6,20.7h-.6c0-.3-.1-.5-.1-.7a8.8,8.8,0,0,0-.7-2.6c-2.5-6.9-6.4-6.1-6.4-6.1a5.2,5.2,0,0,0-1.7.2s-2.1-3-10.4,2.6l-2.1.5a48.1,48.1,0,0,1,1-10.4c.6-2.1,1.5-3.8,2.8-4.1A30.2,30.2,0,0,1,624.5,123.6Z" fill="#fff"/><path d="M627,147.7c-6,2.3-8,.5-8,.5-2.9-.7-4.9-4.6-5.8-6.7l1.5-.3c-.3-.9-.5-1.8.1-2.4a44.6,44.6,0,0,1,8.8-3.6,5.2,5.2,0,0,1,1.7-.2s3.9-.8,6.4,6.1a8.8,8.8,0,0,1,.7,2.6h-.7s-.2,2.7-4.7,4Z" fill="#fff"/><path d="M625.9,172c-1.1-4.6-6-4.7-6-4.7a7.9,7.9,0,0,0-5.2,3.1c-2.5,3.2-1.4,7.8-1.4,7.8l.4,1.5a5.5,5.5,0,0,0,2.4.6,42.8,42.8,0,0,0,4.6-.1c5.9,0,5.4-5.3,5.4-5.3a6.3,6.3,0,0,0-.1-2.4,1.1,1.1,0,0,0-.1-.5Zm5.2-21.5h.1s-.9,8.3-1.5,13v2.7c-.1,4.4-.8,12.8-5.1,14.9,0,0-10.4,5.7-14.1-2.5,0,0-1.6-6.1-.7-15.7v-.2a25.4,25.4,0,0,0,4.2-.2c8.7-2.7,12.5-7.2,12.5-7.2A14.9,14.9,0,0,0,631.1,150.5Z" fill="#fff"/><path d="M616.5,170.8l-1.8-.4a7.9,7.9,0,0,1,5.2-3.1s4.9.1,6,4.7h0a1.1,1.1,0,0,1,.1.5,6.3,6.3,0,0,1,.1,2.4s.5,5.3-5.4,5.3a42.8,42.8,0,0,1-4.6.1v-1.4l-.4-5.1A3.4,3.4,0,0,1,616.5,170.8Z" fill="#fff"/><path d="M614.7,170.4l1.8.4a3.4,3.4,0,0,0-.7,3l.4,5.1v1.4a5.5,5.5,0,0,1-2.4-.6l-.4-1.5S612.2,173.6,614.7,170.4Z" fill="#f2f2f2"/><path d="M550,68.8c-3.4-.2-4.5,5.5-4.5,5.5s.2,1.9.2,1.9c-2.2,5.4.4,17.4.4,17.4l.2,11.9a5.2,5.2,0,0,0,.4,3.5l.7,11.4s1.6,11.5,4.4,16.7a5.4,5.4,0,0,0,.9,1.5,4.7,4.7,0,0,1,1.1,3.2" fill="none" stroke-linecap="round" stroke-miterlimit="10" stroke-width="1.27" stroke="url(#新建图案色板_1-173)"/><path d="M560.3,94.2l2.2-.4a4.8,4.8,0,0,0,2.6-1.5,3.8,3.8,0,0,0,.6-2.6,46.7,46.7,0,0,0-.8-5.4l-2.8-8.7c-2.3-5.8-4.5-7.7-6-8.3a2.1,2.1,0,0,0-1.7-.2,11.3,11.3,0,0,0-3.1,1l-1.2.7a9.1,9.1,0,0,0-2,1.9,10.1,10.1,0,0,0-1.8,3.6" fill="none" stroke-linecap="round" stroke-miterlimit="10" stroke-width="1.27" stroke="url(#新建图案色板_1-173)"/><path d="M551.9,91.1s3.6-2.6,10.6-1.9" fill="none" stroke-linecap="round" stroke-miterlimit="10" stroke-width="0.48" stroke="url(#新建图案色板_1-173)"/><path d="M562.5,93.8a16.5,16.5,0,0,1,.6,3.7" fill="none" stroke-linecap="round" stroke-miterlimit="10" stroke-width="0.48" stroke="url(#新建图案色板_1-173)"/><path d="M565.1,92.3h0a37.4,37.4,0,0,1,1.7,12.2,22.5,22.5,0,0,0,2.4,8.6c2.1,3.7,4.4,16.6,4.4,16.6l1.3,7a2.3,2.3,0,0,1,.1,1.1c-.3,1-1.2,2.6-4.5,4" fill="none" stroke-linecap="round" stroke-miterlimit="10" stroke-width="1.27" stroke="url(#新建图案色板_1-173)"/><path d="M551.8,137.1s.2,10.7.9,15.7l.3.9a12.8,12.8,0,0,0,4.4,6.2" fill="none" stroke-linecap="round" stroke-miterlimit="10" stroke-width="1.27" stroke="url(#新建图案色板_1-173)"/><path d="M563.6,105.3s1.6,3.1,2.1,4.4l.9,2.2s2.8,8.1,2.1,11.1" fill="none" stroke-linecap="round" stroke-miterlimit="10" stroke-width="0.48" stroke="url(#新建图案色板_1-173)"/><path d="M557.9,103.5l.6,3.4s1.6,2.3.4,3.5" fill="none" stroke-linecap="round" stroke-miterlimit="10" stroke-width="0.48" stroke="url(#新建图案色板_1-173)"/><path d="M557.2,111.4a20.8,20.8,0,0,1,8.5-1.7" fill="none" stroke-linecap="round" stroke-miterlimit="10" stroke-width="0.48" stroke="url(#新建图案色板_1-173)"/><path d="M551.9,116.6s5.9,1.4,14.3-2.8" fill="none" stroke-linecap="round" stroke-linejoin="bevel" stroke-width="0.64" stroke="url(#新建图案色板_1-173)"/><path d="M563.1,123.9a53.4,53.4,0,0,1,2,8.5,21.2,21.2,0,0,0,1.6,3.9" fill="none" stroke-linecap="round" stroke-linejoin="bevel" stroke-width="0.48" stroke="url(#新建图案色板_1-173)"/><path d="M554.6,145.4a65.4,65.4,0,0,0,8.5,0" fill="none" stroke-linecap="round" stroke-linejoin="bevel" stroke-width="0.48" stroke="url(#新建图案色板_1-173)"/><path d="M564.4,144.2s-3.2.9,1.1,4.9" fill="none" stroke-linecap="round" stroke-linejoin="bevel" stroke-width="0.48" stroke="url(#新建图案色板_1-173)"/><path d="M575,137.8a47.8,47.8,0,0,0,4.9,3.8l1.3.6h.3" fill="none" stroke-linecap="round" stroke-linejoin="bevel" stroke-width="1.27" stroke="url(#新建图案色板_1-173)"/><path d="M579.9,141.6l.4-6.1s0-4.9,5.9-11.6c0,0,1.5-2,3.2-3.8a11.8,11.8,0,0,1,3.2-2.6s6.2,0,9-.7a5.9,5.9,0,0,1,4.5,3.9,7.9,7.9,0,0,1,.4,2.3l.6,4.1.7,4.7" fill="none" stroke-linecap="round" stroke-linejoin="bevel" stroke-width="1.27" stroke="url(#新建图案色板_1-173)"/><path d="M606.1,120.7s5.3,4.5,6,7.2" fill="none" stroke-linecap="round" stroke-linejoin="bevel" stroke-width="1.27" stroke="url(#新建图案色板_1-173)"/><path d="M611.1,138.3a48.1,48.1,0,0,1,1-10.4c.6-2.1,1.5-3.8,2.8-4.1a30.2,30.2,0,0,1,9.6-.2s11.1,6.3,8.6,20.7" fill="none" stroke-linecap="round" stroke-linejoin="bevel" stroke-width="1.27" stroke="url(#新建图案色板_1-173)"/><path d="M616.9,144.6a14.5,14.5,0,0,1-2.2-3.4c-.3-.9-.5-1.8.1-2.4a44.6,44.6,0,0,1,8.8-3.6,5.2,5.2,0,0,1,1.7-.2s3.9-.8,6.4,6.1" fill="none" stroke-linecap="round" stroke-linejoin="bevel" stroke-width="1.27" stroke="url(#新建图案色板_1-173)"/><path d="M617.3,141.1s2.3,1.8,2.3,3.5" fill="none" stroke-linecap="round" stroke-linejoin="bevel" stroke-width="0.32" stroke="url(#新建图案色板_1-173)"/><path d="M627,147.7l-2.1.5s-4.3.3-5.9-1.6" fill="none" stroke-linecap="round" stroke-linejoin="bevel" stroke-width="0.64" stroke="url(#新建图案色板_1-173)"/><path d="M631.7,143.7s-.2,2.7-4.7,4" fill="none" stroke-linecap="round" stroke-linejoin="bevel" stroke-width="0.64" stroke="url(#新建图案色板_1-173)"/><path d="M612.7,140.1l.5,1.4c.9,2.1,2.9,6,5.8,6.7,0,0,2,1.8,8-.5h0" fill="none" stroke-linecap="round" stroke-linejoin="bevel" stroke-width="0.64" stroke="url(#新建图案色板_1-173)"/><path d="M623.6,135.2s-2.1-3-10.4,2.6l-2.1.5c-3.1.6-8.9,1.8-11.7,2.2,0,0-8,1.3-8.7,4l-2.9,4.9-.8,1.7c-3-5.4-2.3-18.9-2.3-18.9" fill="none" stroke-linecap="round" stroke-linejoin="round" stroke-width="1.27" stroke="url(#新建图案色板_1-173)"/><path d="M587,151.1s-7.1,10.2-8.7,12a25.4,25.4,0,0,0-2.1,2.6c-1.8,2.1-4.8,4.8-11.1,6.1" fill="none" stroke-linecap="round" stroke-linejoin="round" stroke-width="1.27" stroke="url(#新建图案色板_1-173)"/><path d="M569.2,152.7s5.7,6.2,9.1,10.4" fill="none" stroke-linecap="round" stroke-linejoin="round" stroke-width="0.64" stroke="url(#新建图案色板_1-173)"/><path d="M564.8,161.4s5.3-1.2,11.4,4.3" fill="none" stroke-linecap="round" stroke-linejoin="round" stroke-width="0.64" stroke="url(#新建图案色板_1-173)"/><path d="M553,153.7a25.1,25.1,0,0,0,2.8,15.2,24.8,24.8,0,0,0,3.5,4.9" fill="none" stroke-linecap="round" stroke-linejoin="round" stroke-width="1.27" stroke="url(#新建图案色板_1-173)"/><path d="M563,204a12.6,12.6,0,0,1,.3,2.1v.2" fill="none" stroke-linecap="round" stroke-linejoin="round" stroke-width="1.27" stroke="url(#新建图案色板_1-173)"/><path d="M555.7,168.2a4.2,4.2,0,0,0,.1.7c.5,2.5,1.9,11.7.4,17.6,0,0-1,4.1,2.9,8.7A19.6,19.6,0,0,1,563,204" fill="none" stroke-linecap="round" stroke-linejoin="round" stroke-width="1.27" stroke="url(#新建图案色板_1-173)"/><path d="M562.6,198.2a55,55,0,0,0,.4,5.8h0l.3,2.1a46.2,46.2,0,0,0,3.9,13.4c4.5,8.7,7,20.3,7,20.3l.8,14.8v.3" fill="none" stroke-linecap="round" stroke-linejoin="round" stroke-width="1.27" stroke="url(#新建图案色板_1-173)"/><path d="M608.5,162.6l1.3.2a25.4,25.4,0,0,0,4.2-.2c8.7-2.7,12.5-7.2,12.5-7.2a14.9,14.9,0,0,0,4.6-4.9,10.7,10.7,0,0,0,1.4-6.1c0-.3-.1-.5-.1-.7a8.8,8.8,0,0,0-.7-2.6" fill="none" stroke-linecap="round" stroke-linejoin="round" stroke-width="1.27" stroke="url(#新建图案色板_1-173)"/><path d="M606.8,168.2c-1,2.3-2.6,5.4-4.3,6.7" fill="none" stroke-linecap="round" stroke-linejoin="round" stroke-width="1.27" stroke="url(#新建图案色板_1-173)"/><path d="M606.1,157.7a7.1,7.1,0,0,1,1.8,7.5s-.4,1.3-1.1,3" fill="none" stroke-linecap="round" stroke-linejoin="round" stroke-width="1.27" stroke="url(#新建图案色板_1-173)"/><path d="M606.4,174.9a9.7,9.7,0,0,1-2.3,2.9" fill="none" stroke-linecap="round" stroke-linejoin="round" stroke-width="0.64" stroke="url(#新建图案色板_1-173)"/><path d="M606.8,168.2a8,8,0,0,1-.4,6.7" fill="none" stroke-linecap="round" stroke-linejoin="round" stroke-width="0.64" stroke="url(#新建图案色板_1-173)"/><path d="M606.8,168.2h0" fill="none" stroke-linecap="round" stroke-linejoin="round" stroke-width="1.27" stroke="url(#新建图案色板_1-173)"/><path d="M631.2,150.6s-.9,8.3-1.5,13v2.7c-.1,4.4-.8,12.8-5.1,14.9,0,0-10.4,5.7-14.1-2.5,0,0-1.6-6.1-.7-15.7" fill="none" stroke-linecap="round" stroke-linejoin="round" stroke-width="1.27" stroke="url(#新建图案色板_1-173)"/><path d="M625.9,172c-1.1-4.6-6-4.7-6-4.7a7.9,7.9,0,0,0-5.2,3.1c-2.5,3.2-1.4,7.8-1.4,7.8l.4,1.5a5.5,5.5,0,0,0,2.4.6,42.8,42.8,0,0,0,4.6-.1c5.9,0,5.4-5.3,5.4-5.3a6.3,6.3,0,0,0-.1-2.4,1.1,1.1,0,0,0-.1-.5" fill="none" stroke-linecap="round" stroke-linejoin="round" stroke-width="0.64" stroke="url(#新建图案色板_1-173)"/><path d="M621.4,169.5s-3.4-.5-4.9,1.3a3.4,3.4,0,0,0-.7,3l.4,5.1" fill="none" stroke-linecap="round" stroke-linejoin="round" stroke-width="0.64" stroke="url(#新建图案色板_1-173)"/><path d="M589.4,120.1s-.6,3.3,1.6,5.1" fill="none" stroke-linecap="round" stroke-linejoin="bevel" stroke-width="0.48" stroke="url(#新建图案色板_1-173)"/><path d="M633.1,144.3a3.1,3.1,0,0,1,1.1,0,9.2,9.2,0,0,1,3.5.9" fill="none" stroke-linecap="round" stroke-linejoin="bevel" stroke-width="1.27" stroke="url(#新建图案色板_1-173)"/><path d="M634.2,144.3s5.8-9.3,6.7-10.9l.5-.7c.8-.9,2.3-2.4,3.9-1.7" fill="none" stroke-linecap="round" stroke-linejoin="bevel" stroke-width="1.27" stroke="url(#新建图案色板_1-173)"/><path d="M641.4,132.7s9.2-19,9.6-21.5c0,0,2.5-7,2.6-9.3,0,0,6.3-16.1,14.4-6.2,0,0,4.2,7.6-1.3,21.2,0,0-2.1,8-3.2,11.5a12,12,0,0,1-2.8,6.1s-9.3,16.8-11.5,22.4" fill="none" stroke-linecap="round" stroke-linejoin="bevel" stroke-width="1.27" stroke="url(#新建图案色板_1-173)"/><path d="M646.4,152.4a9.7,9.7,0,0,1,2.4,4.6,17,17,0,0,1,.7,5.9,29.4,29.4,0,0,1-1.9,10.6" fill="none" stroke-linecap="round" stroke-linejoin="bevel" stroke-width="1.27" stroke="url(#新建图案色板_1-173)"/><path d="M644.7,170.4s1.8.1,2.7,3.2a17.2,17.2,0,0,1,.2,6.7s-1.2,16.4-.5,21.1a195,195,0,0,1-5.3,21.5,28.6,28.6,0,0,1-1.8,14.2s-.6.9-.5,3.5a31.3,31.3,0,0,0,1.1,6.7s-5.3,11.6-3.4,21.4H575s-.6-4.1,0-6.4,0-7.7,0-7.7" fill="none" stroke-linecap="round" stroke-linejoin="round" stroke-width="1.27" stroke="url(#新建图案色板_1-173)"/><path d="M595.8,145.2a31.6,31.6,0,0,1,9.6,10.5" fill="none" stroke-linecap="round" stroke-linejoin="round" stroke-width="0.64" stroke="url(#新建图案色板_1-173)"/><path d="M592.5,147a12.1,12.1,0,0,1,4.5,4.8,39.5,39.5,0,0,0,6.4,3.9" fill="none" stroke-linecap="round" stroke-linejoin="round" stroke-width="0.64" stroke="url(#新建图案色板_1-173)"/><path d="M575,173s-.5,2.7-6.2,5.9c0,0-3.7,5.5-1.2,10.7" fill="none" stroke-linecap="round" stroke-linejoin="round" stroke-width="0.64" stroke="url(#新建图案色板_1-173)"/><path d="M617.5,208.6a5.7,5.7,0,0,0,.1,1.3,34.5,34.5,0,0,1-4.2,16.6" fill="none" stroke-linecap="round" stroke-linejoin="round" stroke-width="0.64" stroke="url(#新建图案色板_1-173)"/><path d="M606.4,174.9h0a50.9,50.9,0,0,0,6,12.3s3.5,5.7,5.1,21.4" fill="none" stroke-linecap="round" stroke-linejoin="round" stroke-width="0.64" stroke="url(#新建图案色板_1-173)"/><path d="M617.5,208.6c.2,1.1,2.7,13.9.1,17.9" fill="none" stroke-linecap="round" stroke-linejoin="round" stroke-width="0.48" stroke="url(#新建图案色板_1-173)"/><path d="M617.5,208.6h0" fill="none" stroke-linecap="round" stroke-linejoin="round" stroke-width="0.64" stroke="url(#新建图案色板_1-173)"/><path d="M617.5,208.6h0" fill="none" stroke-linecap="round" stroke-linejoin="round" stroke-width="0.48" stroke="url(#新建图案色板_1-173)"/><path d="M616.2,167.3s6.1-3.6,9.5,1.1a18.7,18.7,0,0,0,.2,3.6h0a1.1,1.1,0,0,1,.1.5h.1" fill="none" stroke-linecap="round" stroke-linejoin="round" stroke-width="0.64" stroke="url(#新建图案色板_1-173)"/><path d="M630.3,158.8s1.8.3,8.1-1.5" fill="none" stroke-linecap="round" stroke-linejoin="round" stroke-width="0.64" stroke="url(#新建图案色板_1-173)"/><path d="M637.7,164.4a9.6,9.6,0,0,1,7.6,4.1" fill="none" stroke-linecap="round" stroke-linejoin="round" stroke-width="0.64" stroke="url(#新建图案色板_1-173)"/><path d="M629.7,166.3s5.8.9,10,1.9" fill="none" stroke-linecap="round" stroke-linejoin="round" stroke-width="0.64" stroke="url(#新建图案色板_1-173)"/><path d="M635.4,174.9s6.1,1.5,6.9,4.7" fill="none" stroke-linecap="round" stroke-linejoin="round" stroke-width="0.64" stroke="url(#新建图案色板_1-173)"/><path d="M636.5,181.8a3,3,0,0,1,2.4.9" fill="none" stroke-linecap="round" stroke-linejoin="round" stroke-width="0.64" stroke="url(#新建图案色板_1-173)"/><path d="M625.8,180.7a87.9,87.9,0,0,1,7.2,7.4" fill="none" stroke-linecap="round" stroke-linejoin="round" stroke-width="0.64" stroke="url(#新建图案色板_1-173)"/><path d="M635.4,203.7s7,3.4,6.4,5.8" fill="none" stroke-linecap="round" stroke-linejoin="round" stroke-width="0.48" stroke="url(#新建图案色板_1-173)"/><path d="M593.9,178.9l-2.6,2.4s-5.1-.3-6.7,1.4" fill="none" stroke-linecap="round" stroke-miterlimit="10" stroke-width="0.64" stroke="url(#新建图案色板_1-173)"/><path d="M598,181.3c-1.7,1.4-13,6.3-16.6,12.3" fill="none" stroke-linecap="round" stroke-miterlimit="10" stroke-width="0.64" stroke="url(#新建图案色板_1-173)"/><path d="M601.8,176.4a25.9,25.9,0,0,1-3.8,4.9" fill="none" stroke-linecap="round" stroke-miterlimit="10" stroke-width="0.64" stroke="url(#新建图案色板_1-173)"/><path d="M593.9,181.3a34.7,34.7,0,0,1-13.7,4.7" fill="none" stroke-linecap="round" stroke-miterlimit="10" stroke-width="0.64" stroke="url(#新建图案色板_1-173)"/><path d="M598,181.3h0c-.1.3-3.8,10.5-13.4,14.8" fill="none" stroke-linecap="round" stroke-miterlimit="10" stroke-width="0.64" stroke="url(#新建图案色板_1-173)"/><path d="M600.9,184.4s-4.4,8.3-7,10.5" fill="none" stroke-linecap="round" stroke-miterlimit="10" stroke-width="0.64" stroke="url(#新建图案色板_1-173)"/><path d="M606.4,196.1s-3.8,6.5-8.4,10.2" fill="none" stroke-linecap="round" stroke-miterlimit="10" stroke-width="0.64" stroke="url(#新建图案色板_1-173)"/><path d="M603.5,208.6l-12.8,8" fill="none" stroke-linecap="round" stroke-miterlimit="10" stroke-width="0.64" stroke="url(#新建图案色板_1-173)"/><path d="M600.9,212.6s-11.1,8.3-16.3,9" fill="none" stroke-linecap="round" stroke-miterlimit="10" stroke-width="0.64" stroke="url(#新建图案色板_1-173)"/><path d="M596.4,218.9s-6.6,10.9-10.9,13.3" fill="none" stroke-linecap="round" stroke-miterlimit="10" stroke-width="0.64" stroke="url(#新建图案色板_1-173)"/><path d="M573.3,232.2s.3,3.2,6.5,2.8" fill="none" stroke-linecap="round" stroke-miterlimit="10" stroke-width="0.64" stroke="url(#新建图案色板_1-173)"/><path d="M575,246.5a63.6,63.6,0,0,0,9,0" fill="none" stroke-linecap="round" stroke-miterlimit="10" stroke-width="0.64" stroke="url(#新建图案色板_1-173)"/><path d="M636.9,227.7a41.8,41.8,0,0,0-2.8,10.5,14,14,0,0,0,.4,5.5" fill="none" stroke-linecap="round" stroke-miterlimit="10" stroke-width="0.64" stroke="url(#新建图案色板_1-173)"/><path d="M634.1,238.2s3.9.5,5.4,2.4" fill="none" stroke-linecap="round" stroke-miterlimit="10" stroke-width="0.64" stroke="url(#新建图案色板_1-173)"/><path d="M633.1,249.4a11.1,11.1,0,0,1-1.6,6.6s-1.4,11.5.8,12.7" fill="none" stroke-linecap="round" stroke-miterlimit="10" stroke-width="0.64" stroke="url(#新建图案色板_1-173)"/><line x1="591.6" y1="254.9" x2="591.6" y2="268" fill="none" stroke-linecap="round" stroke-miterlimit="10" stroke-width="0.64" stroke="url(#新建图案色板_1-173)"/><path d="M576.6,257.4s-2,.9,1,5.4" fill="none" stroke-linecap="round" stroke-miterlimit="10" stroke-width="0.32" stroke="url(#新建图案色板_1-173)"/><path d="M597.1,236.4a9.6,9.6,0,0,1,5.9-2,13.7,13.7,0,0,1,4.2.6h4.1s1.5-.9,5.1.7c0,0,5.9,3,7.8,2.5" fill="none" stroke-linecap="round" stroke-miterlimit="10" stroke-width="0.64" stroke="url(#新建图案色板_1-173)"/><path d="M596.4,244.5s2.9,1.5,10-.8a31.3,31.3,0,0,0,4.8,2.4,7.9,7.9,0,0,0,3.8.6l9.2.9" fill="none" stroke-linecap="round" stroke-miterlimit="10" stroke-width="0.64" stroke="url(#新建图案色板_1-173)"/><line x1="603" y1="234.4" x2="603" y2="239.4" fill="none" stroke-linecap="round" stroke-miterlimit="10" stroke-width="0.64" stroke="url(#新建图案色板_1-173)"/><path d="M611.3,235a30.5,30.5,0,0,0,0,4.4" fill="none" stroke-linecap="round" stroke-miterlimit="10" stroke-width="0.64" stroke="url(#新建图案色板_1-173)"/><path d="M601.8,244.8s.1,9.9-.9,15.3l-.5,8.6" fill="none" stroke-linecap="round" stroke-miterlimit="10" stroke-width="0.64" stroke="url(#新建图案色板_1-173)"/><path d="M611.2,246.1l-.9,10.6s.6,4.7,0,6.1" fill="none" stroke-linecap="round" stroke-miterlimit="10" stroke-width="0.64" stroke="url(#新建图案色板_1-173)"/><path d="M639.7,148.9a7.1,7.1,0,0,1,2.6,3" fill="none" stroke-linecap="round" stroke-linejoin="round" stroke-width="0.48" stroke="url(#新建图案色板_1-173)"/><path d="M645.3,156.9a8.4,8.4,0,0,1,4.2,6h0" fill="none" stroke-linecap="round" stroke-linejoin="round" stroke-width="0.48" stroke="url(#新建图案色板_1-173)"/><path d="M649.5,132.2c.8.2,4.7.6,6,3.8" fill="none" stroke-linecap="round" stroke-linejoin="round" stroke-width="0.48" stroke="url(#新建图案色板_1-173)"/><path d="M651.9,130.9s2.9.3,3.6,1.3" fill="none" stroke-linecap="round" stroke-linejoin="round" stroke-width="0.48" stroke="url(#新建图案色板_1-173)"/><path d="M647.4,127.9s6.6-.8,9.6,3.6" fill="none" stroke-linecap="round" stroke-linejoin="round" stroke-width="0.48" stroke="url(#新建图案色板_1-173)"/><path d="M657.5,112.6a10.3,10.3,0,0,1,4.2.4,5,5,0,0,1,2.7,2.1" fill="none" stroke-linecap="round" stroke-linejoin="round" stroke-width="0.48" stroke="url(#新建图案色板_1-173)"/><path d="M657,110.1s3.7-.8,6.2,1.6" fill="none" stroke-linecap="round" stroke-linejoin="round" stroke-width="0.48" stroke="url(#新建图案色板_1-173)"/><path d="M661.7,113a20.4,20.4,0,0,1-2.6,7.7" fill="none" stroke-linecap="round" stroke-linejoin="round" stroke-width="0.48" stroke="url(#新建图案色板_1-173)"/></g><path d="M734,71.3l23.8,47.5-51.5,23.4L682.6,94.8Zm9.4,42.9L728.7,84.9,697,99.4l14.6,29.2Z" fill="#cd5d9d"/><polygon points="757.8 118.8 706.3 142.2 682.6 94.8 734 71.3 757.8 118.8" fill="none" stroke-miterlimit="10" stroke-width="1.52" stroke="url(#新建图案色板_1-357)"/><polygon points="743.4 114.2 711.6 128.6 697 99.4 728.7 84.9 743.4 114.2" fill="none" stroke-miterlimit="10" stroke-width="1.52" stroke="url(#新建图案色板_1-357)"/><path d="M527.4,44c2,10.9,13.3,18,25.1,15.8s19.6-13,17.6-23.9-13.4-18.1-25.2-15.8S525.3,33,527.4,44Zm26.7,24.4c-16.9,3.2-33-6.9-36-22.7s8.3-31,25.2-34.3,33,7,36,22.7S571,65.2,554.1,68.4Z" fill="#dd375f"/><path d="M520.6,110.6,486.9,91.8l-1.5,37.4ZM478.5,78,538,110.2l-61.7,32.5Z" fill="#00bbc7"/><polygon points="689.2 52.1 686.6 59.2 653 49.2 641.5 80.5 634.4 78.4 646 46.8 613.1 37 615.8 29.8 648.8 39.6 660.5 7.7 667.5 9.7 655.6 42.1 689.2 52.1" fill="#5eb7ef"/><ellipse cx="548.7" cy="39.9" rx="31.2" ry="29" transform="translate(2.2 103.2) rotate(-10.8)" fill="none" stroke-miterlimit="10" stroke-width="1.52" stroke="url(#新建图案色板_1-361)"/><path d="M570.1,35.9c2,10.9-5.8,21.6-17.6,23.9S529.4,54.9,527.4,44s5.7-21.7,17.5-23.9S568,24.9,570.1,35.9Z" fill="none" stroke-miterlimit="10" stroke-width="1.52" stroke="url(#新建图案色板_1-361)"/><polygon points="478.5 78 476.3 142.7 538 110.2 478.5 78" fill="none" stroke-miterlimit="10" stroke-width="1.52" stroke="url(#新建图案色板_1-361)"/><polygon points="486.9 91.8 485.4 129.2 520.6 110.6 486.9 91.8" fill="none" stroke-miterlimit="10" stroke-width="1.52" stroke="url(#新建图案色板_1-361)"/><polygon points="667.5 9.7 655.6 42.1 689.2 52.1 686.6 59.2 653 49.2 641.5 80.5 634.4 78.4 646 46.8 613.1 37 615.8 29.8 648.8 39.6 660.5 7.7 667.5 9.7" fill="none" stroke-miterlimit="10" stroke-width="1.52" stroke="url(#新建图案色板_1-361)"/><g id="Fist2"><path d="M613.7,236.8c0,.2.5,2.5,1.2,5.7C614.6,240.4,614.1,238.5,613.7,236.8Zm-62.1,39.9-.6.2c-2.1-2-6.5-3.1-8.8-4.4s-1.9-4.2-1.9-4.2v-8.4c1.2-8.4,5.7-10.3,5.7-10.3,5.2-7.1,9.3-20.7,9.3-20.7l1.5-9.2,3.2-8.9a23.6,23.6,0,0,1,13.5-4.7s10,2.2,14.2-3.4l4-4.8,5.7-2.9s3.6-1.3,5.9,1.6l4.1,6.9s3.5,4.9,18.6,3.1c0,0,5.8-.2,8.7,4,0,0,4.9,8.5,10.9,12.1h3.8s3-.4,8.9,3.6l3.3,2.6s1.5,2.9-.1,7.9l.7,7.6a6.3,6.3,0,0,1-1.8,5.7l-1.5,2.7h-.1c-.7,3.4-1.9,7.1-4.1,9.7,0,0-3.1,4.8-10.8,15.2,0,0-10.2,1.1-13.2-.3a4.2,4.2,0,0,1-1.7-1.2h-.2l1.4-1.3a25.6,25.6,0,0,1-10.9,0c1.1-4.7-2.4-22.9-4.4-32.3a57.6,57.6,0,0,1,.2,15.7s-1.7,7.1-5.9,11.2c-2.7-2.5-13.1-1.2-13.1-1.2-.8-5.7-8.8-17.2-8.8-17.2a13.7,13.7,0,0,0,1.9,5.9s1.2,5.7-.6,10.1a7.3,7.3,0,0,1-1.5,2.5,7.7,7.7,0,0,1-4.5,2.2,20.1,20.1,0,0,1-6.7,1.3c-3.1,1.3-6.5,7.1-6.5,7.1-3.7,6.2-1.2,15.6-1.2,15.6l-2.3-.4A18.9,18.9,0,0,1,560,288C558.6,285.3,554.8,280.5,551.6,276.7Z" fill="#fff"/><path d="M630.2,274.9l-1.4,1.3a36.3,36.3,0,0,1-3.4,2.7H612.9a24.3,24.3,0,0,1-11.2-7.6l5.7-.3a6.5,6.5,0,0,0,1.8-1.5c4.2-4.1,5.9-11.2,5.9-11.2a57.6,57.6,0,0,0-.2-15.7c2,9.4,5.5,27.6,4.4,32.3A25.6,25.6,0,0,0,630.2,274.9Z" fill="#f8f8f8"/><path d="M601.7,271.3h-3.4l-6.8.4a5.7,5.7,0,0,1-4.3-2.1h-.1a7.3,7.3,0,0,0,1.5-2.5c1.8-4.4.6-10.1.6-10.1a13.7,13.7,0,0,1-1.9-5.9s8,11.5,8.8,17.2c0,0,10.4-1.3,13.1,1.2a6.5,6.5,0,0,1-1.8,1.5Z" fill="#f8f8f8"/><path d="M598.3,271.4s3.7,4.4,3,8.8c-.7-1.7-2.4-3-6-3.1,0,0-7.1,0-10.9,2.3a15.9,15.9,0,0,0,0,8.4l5.7.5h0l-3.5,1-3.7,1.6c-6.2,4.7-11.7,5.1-14.7,4.8,0,0-2.5-9.4,1.2-15.6,0,0,3.4-5.8,6.5-7.1a20.1,20.1,0,0,0,6.7-1.3,7.7,7.7,0,0,0,4.5-2.2h.1a5.7,5.7,0,0,0,4.3,2.1Z" fill="#f8f8f8"/><path d="M601.3,280.2c1.4,3.3-1.2,8-1.2,8s-6.2.3-10,.1l-5.7-.5a15.9,15.9,0,0,1,0-8.4c3.8-2.3,10.9-2.3,10.9-2.3C598.9,277.2,600.6,278.5,601.3,280.2Z" fill="#f8f8f8"/><path d="M609.8,207.4l-2.4-3.9-4.1-6.9c-2.3-2.9-5.9-1.6-5.9-1.6l-5.7,2.9-4,4.8c-4.2,5.6-14.2,3.4-14.2,3.4a23.6,23.6,0,0,0-13.5,4.7l-3.2,8.9-1.5,9.2s-4.1,13.6-9.3,20.7c0,0-4.5,1.9-5.7,10.3v8.4s-.4,2.9,1.9,4.2,6.7,2.4,8.8,4.4l.2.2" fill="none" stroke-linecap="round" stroke-linejoin="round" stroke-width="0.88" stroke="url(#新建图案色板_1-371)"/><path d="M607.4,203.5s3.5,4.9,18.6,3.1c0,0,5.8-.2,8.7,4,0,0,4.9,8.5,10.9,12.1h3.8s3-.4,8.9,3.6l3.3,2.6s1.5,2.9-.1,7.9a32.1,32.1,0,0,1-2.2,4.8l-4.2,7.1" fill="none" stroke-linecap="round" stroke-linejoin="round" stroke-width="0.88" stroke="url(#新建图案色板_1-371)"/><path d="M661.5,236.8l.7,7.6a6.3,6.3,0,0,1-1.8,5.7l-1.5,2.7" fill="none" stroke-linecap="round" stroke-linejoin="round" stroke-width="0.88" stroke="url(#新建图案色板_1-371)"/><path d="M659.7,244.8a43.7,43.7,0,0,1-.9,8c-.7,3.4-1.9,7.1-4.1,9.7,0,0-3.1,4.8-10.8,15.2,0,0-10.2,1.1-13.2-.3a4.2,4.2,0,0,1-1.7-1.2" fill="none" stroke-linecap="round" stroke-linejoin="round" stroke-width="0.88" stroke="url(#新建图案色板_1-371)"/><path d="M633.7,235.1s6.1,26.3-2.4,38.7a9.2,9.2,0,0,1-1.1,1.1l-1.4,1.3a36.3,36.3,0,0,1-3.4,2.7H612.9a24.3,24.3,0,0,1-11.2-7.6h0" fill="none" stroke-linecap="round" stroke-linejoin="round" stroke-width="0.88" stroke="url(#新建图案色板_1-371)"/><path d="M614.9,242.6a57.6,57.6,0,0,1,.2,15.7s-1.7,7.1-5.9,11.2a6.5,6.5,0,0,1-1.8,1.5l-5.7.3h-3.4l-6.8.4a5.7,5.7,0,0,1-4.3-2.1" fill="none" stroke-linecap="round" stroke-linejoin="round" stroke-width="0.88" stroke="url(#新建图案色板_1-371)"/><path d="M613.7,236.8c.4,1.7.9,3.6,1.2,5.7" fill="none" stroke-linecap="round" stroke-linejoin="round" stroke-width="0.88" stroke="url(#新建图案色板_1-371)"/><path d="M609.8,227.7a32.1,32.1,0,0,1,3.9,9.1" fill="none" stroke-linecap="round" stroke-linejoin="round" stroke-width="0.88" stroke="url(#新建图案色板_1-371)"/><path d="M569.4,270.7a9,9,0,0,1-2.3-4.9" fill="none" stroke-linecap="round" stroke-linejoin="round" stroke-width="0.88" stroke="url(#新建图案色板_1-371)"/><path d="M588,226.1s3.1,12.2-.8,15.7a55.5,55.5,0,0,0,.1,9.3,13.7,13.7,0,0,0,1.9,5.9s1.2,5.7-.6,10.1a7.3,7.3,0,0,1-1.5,2.5,7.7,7.7,0,0,1-4.5,2.2,20.1,20.1,0,0,1-6.7,1.3,8.9,8.9,0,0,1-6.5-2.4" fill="none" stroke-linecap="round" stroke-linejoin="round" stroke-width="0.88" stroke="url(#新建图案色板_1-371)"/><path d="M585.1,229.9l.7,6.6s1.2,3.2,2.4,3.8" fill="none" stroke-linecap="round" stroke-linejoin="round" stroke-width="0.88" stroke="url(#新建图案色板_1-371)"/><path d="M560,259.1a12.2,12.2,0,0,1,3.3,6.3,10.7,10.7,0,0,0,3.8,4l2.3,1.3h0" fill="none" stroke-linecap="round" stroke-linejoin="round" stroke-width="0.88" stroke="url(#新建图案色板_1-371)"/><path d="M554.4,257.9a5.8,5.8,0,0,1,5.6,1.2" fill="none" stroke-linecap="round" stroke-linejoin="round" stroke-width="0.88" stroke="url(#新建图案色板_1-371)"/><path d="M546.3,270.7s2.4,2.6,5.3,6,7,8.6,8.4,11.3a18.9,18.9,0,0,0,5.9,7.4l2.3.4c3,.3,8.5-.1,14.7-4.8l3.7-1.6,3.5-1" fill="none" stroke-linecap="round" stroke-linejoin="round" stroke-width="0.88" stroke="url(#新建图案色板_1-371)"/><path d="M601.3,280.2c-.7-1.7-2.4-3-6-3.1,0,0-7.1,0-10.9,2.3a15.9,15.9,0,0,0,0,8.4l5.7.5c3.8.2,8.5.4,10-.1S602.7,283.5,601.3,280.2Z" fill="none" stroke-linecap="round" stroke-linejoin="round" stroke-width="0.88" stroke="url(#新建图案色板_1-371)"/><path d="M598.3,271.4s3.7,4.4,3,8.8" fill="none" stroke-linecap="round" stroke-linejoin="round" stroke-width="0.88" stroke="url(#新建图案色板_1-371)"/><path d="M560.9,234.4a83.4,83.4,0,0,0-1.6,9.5c0,.7-.1,1.4-.1,2.1a9.1,9.1,0,0,0-.1,1.7,37.5,37.5,0,0,0,.1,5.8l.2,1a17.6,17.6,0,0,1,.6,4.6h0" fill="none" stroke-linecap="round" stroke-linejoin="round" stroke-width="0.88" stroke="url(#新建图案色板_1-371)"/><path d="M557.8,227.1s-1,9.9,2,13.2" fill="none" stroke-linecap="round" stroke-linejoin="round" stroke-width="0.88" stroke="url(#新建图案色板_1-371)"/><path d="M555.6,236.7s.4,6.6,3.7,7.2" fill="none" stroke-linecap="round" stroke-linejoin="round" stroke-width="0.88" stroke="url(#新建图案色板_1-371)"/><path d="M554.4,241.7s1.9,3.5,4.8,4.3" fill="none" stroke-linecap="round" stroke-linejoin="round" stroke-width="0.88" stroke="url(#新建图案色板_1-371)"/><path d="M588.6,217.8a5.4,5.4,0,0,0,3.9,3.9" fill="none" stroke-linecap="round" stroke-linejoin="round" stroke-width="0.44" stroke="url(#新建图案色板_1-371)"/><path d="M614.6,218.9s.4,7.3,4.9,9.5" fill="none" stroke-linecap="round" stroke-linejoin="round" stroke-width="0.44" stroke="url(#新建图案色板_1-371)"/><path d="M639.4,238s2.8,7.7,3.7,10.7" fill="none" stroke-linecap="round" stroke-linejoin="round" stroke-width="0.44" stroke="url(#新建图案色板_1-371)"/><path d="M549.5,254.5a29.8,29.8,0,0,0,9.6-6.8" fill="none" stroke-linecap="round" stroke-linejoin="round" stroke-width="0.44" stroke="url(#新建图案色板_1-371)"/><path d="M554.4,255.9s4.1-.4,5-1.4" fill="none" stroke-linecap="round" stroke-linejoin="round" stroke-width="0.44" stroke="url(#新建图案色板_1-371)"/><path d="M568.2,295.8s-2.5-9.4,1.2-15.6c0,0,3.4-5.8,6.5-7.1h0" fill="none" stroke-linecap="round" stroke-linejoin="round" stroke-width="0.44" stroke="url(#新建图案色板_1-371)"/><path d="M561.9,246s.1,8.5,3.5,13.1a67.8,67.8,0,0,0,8,8.9l4.1-2.3s2.1-2,5.4,1.3c0,0,3.5,2.8,5.7.1" fill="none" stroke-linecap="round" stroke-linejoin="round" stroke-width="0.44" stroke="url(#新建图案色板_1-371)"/><path d="M587.3,251.1s8,11.5,8.8,17.2c0,0,10.4-1.3,13.1,1.2" fill="none" stroke-linecap="round" stroke-linejoin="round" stroke-width="0.44" stroke="url(#新建图案色板_1-371)"/><path d="M614.9,242.6c2,9.4,5.5,27.6,4.4,32.3a25.6,25.6,0,0,0,10.9,0" fill="none" stroke-linecap="round" stroke-linejoin="round" stroke-width="0.44" stroke="url(#新建图案色板_1-371)"/><path d="M614.9,242.5h0" fill="none" stroke-linecap="round" stroke-linejoin="round" stroke-width="0.88" stroke="url(#新建图案色板_1-371)"/><path d="M613.7,236.8h0c0,.2.5,2.5,1.2,5.7" fill="none" stroke-linecap="round" stroke-linejoin="round" stroke-width="0.44" stroke="url(#新建图案色板_1-371)"/><path d="M634.9,241.6s1.9,2.1,2.4,10.6" fill="none" stroke-linecap="round" stroke-linejoin="round" stroke-width="0.44" stroke="url(#新建图案色板_1-371)"/><path d="M636.1,235.9v-5.4s.7,1.1,3.3,1.9" fill="none" stroke-linecap="round" stroke-linejoin="round" stroke-width="0.44" stroke="url(#新建图案色板_1-371)"/><path d="M591.7,197.9s.2,3.9,1.8,4.4-.9,12.4-.9,12.4,4.3,6.9,4,13.7" fill="none" stroke-linecap="round" stroke-linejoin="round" stroke-width="0.44" stroke="url(#新建图案色板_1-371)"/></g><path d="M114.6,24.2V45.7h-7V24.2h-7V18.7h21v5.5Z" fill="#fff"/><path d="M142,45.7v-11h-9.9v11H125v-27h7.1V29.2H142V18.7h7.1v27Z" fill="#fff"/><path d="M154.6,45.7v-27h20.2v5.5H161.7v5.1h11.8v5.2H161.7v5.6h13.1v5.6Z" fill="#fff"/><path d="M200.2,45.7H189.1v-27H200c8.1,0,11.2,2.8,11.2,6.9,0,2.3-.9,4.8-3.4,5.6a6.6,6.6,0,0,1,4.3,6.2C212.1,41.8,209.3,45.7,200.2,45.7Zm-.1-21.5h-3.9v5.2h3.9c3.5,0,4.1-1.2,4.1-2.7S203.8,24.2,200.1,24.2Zm.4,10.1h-4.3v5.9h4.2c3.8,0,4.5-1.4,4.5-3S204.3,34.3,200.5,34.3Z" fill="#fff"/><path d="M216.2,45.7v-27h20.2v5.5H223.2v5.1h11.9v5.2H223.2v5.6h13.2v5.6Z" fill="#fff"/><path d="M252.5,46.1c-9.3,0-12.5-3.5-12.5-10h7c.2,2.7,1.3,4.6,5.3,4.6s4.5-1.5,4.5-2.8c0-5.3-16.3-1.5-16.3-11,0-4.7,2.6-8.6,11.3-8.6s11.4,4,11.5,9.5h-6.9c-.2-2.2-.9-4.1-4.8-4.1s-4.1,1.2-4.1,2.6c0,4.5,16.2.8,16.2,11.2C263.7,41.5,261.3,46.1,252.5,46.1Z" fill="#fff"/><path d="M279.2,24.2V45.7h-7V24.2h-7V18.7h21v5.5Z" fill="#fff"/><path d="M310.3,37.2h-3.9v8.5h-7v-27h10.5c11.1,0,11.9,5.7,11.9,9.4S321.3,37.2,310.3,37.2Zm-.2-13h-3.7v7.7h3.7c4,0,4.6-2.1,4.6-3.8S314.1,24.2,310.1,24.2Z" fill="#fff"/><path d="M326.5,45.7v-27h7.1V40.1h9.3v5.6Z" fill="#fff"/><path d="M364.4,45.7,362.9,41H352.2l-1.6,4.7h-7.4l9.9-27H362l9.8,27Zm-6.9-21.1L353.7,36h7.7Z" fill="#fff"/><path d="M398.3,35c0,6.2-3.3,11.1-12.8,11.1s-13.1-6.8-13.1-13.9,2.3-13.9,13.1-13.9,12.8,5.1,12.8,11h-7.2c-.4-3.5-1.8-5.4-5.6-5.4s-6,3.7-6,8.3.8,8.2,6,8.2,5.2-1.8,5.6-5.4Z" fill="#fff"/><path d="M402.7,45.7v-27h20.2v5.5H409.8v5.1h11.8v5.2H409.8v5.6h13.1v5.6Z" fill="#fff"/><path d="M129,68.1v43.1H114.9V68.1H100.8V56.8h42.3V68.1Z" fill="#fff"/><path d="M171.3,112c-22.4,0-27.1-13.5-27.1-28s4.8-27.9,27.1-27.9,27.4,13.5,27.4,28S193.8,112,171.3,112Zm0-44.8c-11,0-12.7,7.6-12.7,16.8s1.7,16.7,12.7,16.7,12.9-7.3,12.9-16.6S182.7,67.2,171.3,67.2Z" fill="#fff"/><path d="M249.8,94.2H242v17H227.8V56.8H249c22.4,0,24,11.6,24,19S272,94.2,249.8,94.2Zm-.4-26.1H242V83.5h7.4c8.1,0,9.2-4.3,9.2-7.7S257.5,68.1,249.4,68.1Z" fill="#fff"/><path d="M282.3,111.2V56.8h14.4l-.2,43.2h18.7v11.2Z" fill="#fff"/><path d="M358.8,111.2l-3.1-9.3H334.1l-3.1,9.3H316.1l19.8-54.4h18l19.8,54.4Zm-14-42.4-7.6,23h15.4Z" fill="#fff"/><path d="M402.6,94.7v16.5H387.9V94.7L367.7,56.8h15.2L395.4,83l13.1-26.2h15.2Z" fill="#fff"/><path d="M102.3,175.4V119.2H117v56.2Z" fill="#fff"/><path d="M165.7,175.4l-22.1-35.6v35.6H128.7V119.2h18L168.2,155V119.2H183v56.2Z" fill="#fff"/><path d="M212.7,175.4l.2-10.8c.2-22.2,30.6-17.2,30.6-28.2,0-4.2-2.7-6.7-7.8-6.7s-8.5,3.2-8.5,9.3H213.3c0-11.9,5.6-20.6,22.2-20.6s22.5,8.5,22.5,19.2c0,18.1-31.3,15.7-31.3,25.5v1H258v11.3Z" fill="#fff"/><path d="M289.6,176.2c-20.2,0-24.7-12.7-24.7-28.9s4.4-28.9,24.7-28.9,25.1,12.7,25.1,28.8S310.1,176.2,289.6,176.2Zm0-46.1c-9.1,0-10,6.7-10,17.2s.9,17.2,10,17.2,10.4-6.7,10.4-17.3S299.1,130.1,289.6,130.1Z" fill="#fff"/><path d="M321.5,175.4V164.6c.2-22.2,30.7-17.2,30.7-28.2,0-4.2-2.7-6.7-7.8-6.7s-8.5,3.2-8.5,9.3H322.1c0-11.9,5.6-20.6,22.2-20.6s22.4,8.5,22.4,19.2c0,18.1-31.3,15.7-31.3,25.5v1h31.3v11.3Z" fill="#fff"/><path d="M398.4,176.2c-20.2,0-24.8-12.7-24.8-28.9s4.5-28.9,24.8-28.9,25,12.7,25,28.8S418.9,176.2,398.4,176.2Zm0-46.1c-9.1,0-10,6.7-10,17.2s.9,17.2,10,17.2,10.3-6.7,10.3-17.3S407.9,130.1,398.4,130.1Z" fill="#fff"/></g></svg>